<svg xmlns="http://www.w3.org/2000/svg" width="2267" height="2267" viewBox="0 0 2267 2267" version="1.1">
	<path d="M 1245.500 284.556 C 1296.863 305.929, 1346.698 336.486, 1389 372.546 C 1403.264 384.705, 1436.747 418.074, 1448.265 431.609 C 1515.997 511.206, 1558.881 605.599, 1573.428 707.108 C 1582.818 772.631, 1580.872 836.305, 1567.592 898.013 C 1548.867 985.028, 1510.557 1063.457, 1453.054 1132.500 C 1438.102 1150.453, 1407.422 1181.476, 1389.680 1196.584 C 1309.382 1264.958, 1211.595 1308.447, 1107.787 1321.950 C 1082.718 1325.211, 1065.030 1326.270, 1036 1326.249 C 931.351 1326.170, 830.203 1296.126, 743.018 1239.223 C 708.113 1216.441, 680.934 1193.991, 649.983 1162.373 C 627.205 1139.105, 606.639 1114.051, 589.555 1088.758 C 586.307 1083.950, 583.472 1080.195, 583.253 1080.414 C 582.505 1081.161, 603.856 1122.479, 612.235 1136.500 C 631.867 1169.351, 652.576 1197.721, 677.568 1226 C 691.376 1241.624, 721.678 1271.132, 737.505 1284.367 C 860.962 1387.609, 1015.838 1434.033, 1176.399 1415.928 C 1238.496 1408.925, 1302.163 1390.439, 1358.713 1362.991 C 1439.439 1323.809, 1505.236 1271.444, 1560.777 1202.178 C 1622.229 1125.541, 1662.572 1035.370, 1678.932 938.086 C 1684.830 903.014, 1686.339 884.298, 1686.314 846.500 C 1686.269 778.551, 1677.747 722.817, 1658.333 663.504 C 1634.663 591.189, 1600.661 530.045, 1550.447 469.500 C 1536.674 452.894, 1498.355 414.587, 1481.500 400.576 C 1423.549 352.404, 1361.325 317.486, 1292.346 294.430 C 1273.740 288.211, 1232.371 276.920, 1228.606 277.033 C 1227.997 277.052, 1235.600 280.437, 1245.500 284.556 M 1104 336.043 C 1045.382 339.972, 986.221 353.553, 950.192 371.352 C 937.140 377.800, 931.285 381.844, 923.434 389.837 C 901.651 412.012, 893.508 444.576, 896.888 496 C 897.520 505.625, 898.285 515.525, 898.587 518 L 899.135 522.500 895.986 517.622 C 885.092 500.747, 877.015 461.504, 877.003 425.393 L 877 414.286 864.250 416.689 C 816.928 425.606, 772.507 443.431, 737 467.750 C 705.856 489.081, 677.139 518.122, 660.495 545.117 C 658.023 549.127, 656 552.738, 656 553.141 C 656 553.544, 676.813 554.018, 702.250 554.195 C 750.812 554.532, 753.179 554.751, 754.295 559.019 C 754.989 561.674, 751.662 566.510, 739.500 580.526 C 688.268 639.569, 646.697 718.537, 629.491 789.500 C 607.559 879.950, 615.678 984.992, 651.055 1068.515 C 663.435 1097.744, 685.578 1132.465, 709.080 1159.500 C 760.903 1219.114, 822.257 1253.392, 908.500 1270.914 C 930.995 1275.484, 970.103 1280.038, 986 1279.939 L 992.500 1279.898 978.679 1275.013 C 946.229 1263.544, 916.251 1247.356, 891 1227.670 C 882.276 1220.868, 863.186 1202.190, 855.886 1193.315 C 814.115 1142.523, 798.010 1076.498, 810.084 1005.539 C 821.654 937.543, 861.073 858.516, 920.171 784.841 C 930.627 771.806, 949.934 750, 951.019 750 C 951.407 750, 952.032 753.487, 952.409 757.750 C 953.372 768.656, 956.560 788.958, 960.001 806.096 C 963.186 821.957, 970.531 851.339, 971.942 853.860 C 972.644 855.115, 975.581 852.647, 986.693 841.464 C 1009.800 818.208, 1023.994 798.985, 1036.113 774.535 C 1043.513 759.603, 1049.796 741.795, 1052.531 728 C 1053.458 723.325, 1054.505 712.845, 1054.858 704.710 L 1055.500 689.921 1063.615 686.652 C 1085.699 677.756, 1128.611 652.006, 1179.500 617.114 C 1219.426 589.739, 1233.507 578.410, 1255.007 556.371 C 1289.111 521.410, 1311.917 482.058, 1321.088 442.346 C 1324.068 429.442, 1324.846 405.422, 1322.540 397.491 C 1320.219 389.505, 1315.395 384.676, 1308.201 383.135 C 1301.037 381.601, 1300.710 381.619, 1282.789 384.603 L 1267.079 387.219 1260.210 385.133 C 1254.019 383.252, 1247.994 379.385, 1248.004 377.298 C 1248.018 374.345, 1253.121 369.195, 1260.991 364.190 C 1265.912 361.060, 1269.952 358.239, 1269.969 357.919 C 1270.058 356.237, 1232.861 345.927, 1212.955 342.117 C 1183.994 336.574, 1135.999 333.898, 1104 336.043 M 1068.906 593.821 C 1070.743 597.246, 1077.466 603.307, 1081.419 605.103 C 1084.145 606.341, 1087.862 606.963, 1092.616 606.978 C 1098.772 606.997, 1100.660 606.532, 1106.616 603.529 C 1110.402 601.621, 1115.525 598.292, 1118 596.131 L 1122.500 592.204 1115 594.852 C 1108.287 597.222, 1106.084 597.497, 1094 597.475 C 1081.659 597.452, 1079.964 597.222, 1074.253 594.796 C 1069.175 592.639, 1068.174 592.457, 1068.906 593.821 M 1332.748 634.546 C 1331.915 636.171, 1330.659 640.087, 1329.958 643.250 C 1329.046 647.357, 1328.219 649, 1327.063 649 C 1324.639 649, 1313.443 654.592, 1295 665.013 C 1285.925 670.141, 1274.450 676.098, 1269.500 678.251 C 1251.644 686.019, 1242.662 693.399, 1239.583 702.829 C 1237.949 707.834, 1236.321 721, 1237.336 721 C 1238.249 721, 1240.969 715.409, 1243.131 709.087 C 1245.152 703.176, 1251.553 693, 1253.250 693 C 1254.921 693, 1253.167 700.828, 1249.366 710.333 C 1247.423 715.191, 1246.108 719.441, 1246.444 719.777 C 1247.784 721.117, 1251.083 715.966, 1255.589 705.500 C 1260.830 693.325, 1261.619 692, 1263.622 692 C 1266.122 692, 1265.100 697.398, 1260.994 705.889 C 1256.733 714.701, 1256.612 717.653, 1260.668 713.842 C 1264.194 710.530, 1267.131 705.445, 1269.511 698.534 C 1271.772 691.967, 1273.820 690.622, 1277.074 693.567 C 1278.541 694.895, 1278.997 696.643, 1278.989 700.905 C 1278.972 709.536, 1276.514 716.550, 1269.271 728.630 C 1260.022 744.055, 1259.623 754, 1268.252 754 C 1270.784 754, 1270.525 754.662, 1257.570 781.250 C 1235.391 826.767, 1223.749 853.659, 1218.441 871.632 C 1215.456 881.738, 1214.177 892.373, 1215.825 893.392 C 1217.082 894.169, 1218.053 892.686, 1240.479 855.747 C 1249.746 840.483, 1257.484 828.151, 1257.675 828.341 C 1257.865 828.532, 1250.521 841.021, 1241.353 856.094 C 1217.439 895.415, 1217.676 895.009, 1218.281 895.615 C 1218.585 895.919, 1220.784 895.289, 1223.167 894.216 C 1235.429 888.696, 1260.840 859.830, 1299.504 807.500 C 1309.257 794.300, 1317.552 783.377, 1317.937 783.227 C 1318.322 783.077, 1319.232 784.066, 1319.959 785.424 C 1321.728 788.728, 1323.475 789.246, 1327.367 787.620 C 1331.334 785.963, 1336.631 779.921, 1341.913 771.030 C 1346.827 762.759, 1357.591 751.240, 1361.163 750.431 C 1364.172 749.748, 1368 752.730, 1368 755.755 C 1368 756.720, 1365.511 760.819, 1362.468 764.863 C 1356.617 772.641, 1353.614 778.551, 1354.431 780.680 C 1355.345 783.063, 1357.949 780.836, 1363.485 772.934 C 1368.901 765.205, 1371.332 763, 1374.434 763 C 1377.418 763, 1375.968 766.252, 1369.250 774.631 C 1359.591 786.677, 1356 791.957, 1356 794.113 C 1356 796.925, 1357.583 796.403, 1360.128 792.750 C 1361.373 790.962, 1365.757 786.013, 1369.870 781.750 C 1376.844 774.521, 1380 772.453, 1380 775.110 C 1380 777.944, 1373.083 788.687, 1366.869 795.504 C 1363.091 799.648, 1360 803.509, 1360 804.082 C 1360 804.656, 1362.297 803.875, 1365.104 802.347 C 1382.410 792.928, 1388.376 778.564, 1386.014 752 C 1385.365 744.699, 1385.295 731.964, 1385.824 717.118 C 1386.289 704.041, 1386.273 691.293, 1385.786 688.192 L 1384.917 682.647 1391.174 676.839 C 1399.145 669.440, 1398.539 668.577, 1385.824 669.219 L 1376.500 669.691 1368.968 662.543 C 1362.011 655.941, 1360.749 655.180, 1352.447 652.585 L 1343.458 649.775 1341.050 643.429 C 1339.725 639.938, 1337.656 635.847, 1336.452 634.337 L 1334.263 631.592 1332.748 634.546 M 1198.082 913.434 C 1197.983 916.975, 1194.893 923.451, 1191.438 927.358 C 1188.578 930.591, 1188.255 930.574, 1177.269 926.610 C 1173.292 925.174, 1166.922 923.466, 1163.114 922.813 C 1157.001 921.765, 1155.457 921.848, 1149.926 923.522 C 1144.036 925.306, 1133.041 931.507, 1131.581 933.869 C 1131.218 934.457, 1132.851 934.062, 1135.210 932.991 C 1137.570 931.920, 1140.850 931.052, 1142.500 931.061 L 1145.500 931.078 1142.077 932.564 C 1137.743 934.444, 1129.357 940.807, 1127.523 943.605 C 1126.524 945.130, 1127.920 944.535, 1132.422 941.516 C 1138.680 937.320, 1145.445 934.264, 1144.825 935.915 C 1144.646 936.390, 1141.964 938.836, 1138.864 941.351 C 1135.764 943.866, 1131.735 947.853, 1129.911 950.212 C 1126.739 954.311, 1126.857 954.252, 1132.575 948.890 C 1140.478 941.480, 1149.365 936.665, 1143.908 942.750 C 1138.173 949.146, 1137.842 950.143, 1142.948 945.642 C 1152.857 936.906, 1161.911 934.055, 1173.396 936.055 C 1177.034 936.689, 1180.310 937.692, 1180.677 938.286 C 1181.573 939.737, 1175.293 945.032, 1168.176 948.826 C 1162.872 951.653, 1146.280 957.406, 1136.500 959.810 C 1132.697 960.745, 1132.856 960.798, 1139.730 960.897 C 1143.798 960.955, 1148.717 961.703, 1150.980 962.609 C 1154.302 963.938, 1155 964.692, 1155 966.954 C 1155 970.410, 1153.306 971.881, 1144 976.503 C 1124.470 986.203, 1117.990 996.414, 1118.008 1017.460 C 1118.034 1049.516, 1127.903 1058.875, 1152 1049.696 C 1164.234 1045.036, 1172.667 1040.009, 1180.650 1032.618 C 1188.599 1025.258, 1193.097 1017.752, 1195.314 1008.145 C 1197.917 996.867, 1200.890 996.493, 1206.310 1006.760 L 1209.802 1013.376 1210.896 1009.438 C 1212.678 1003.017, 1212.226 993.095, 1209.918 988.007 C 1208.666 985.247, 1207.876 981.389, 1207.868 978.007 C 1207.855 971.789, 1210.354 953.313, 1211.341 952.325 C 1212.466 951.200, 1215.669 954.903, 1219.036 961.218 C 1223.053 968.756, 1223.933 977.348, 1221.675 986.994 C 1220.839 990.566, 1220.302 993.635, 1220.481 993.815 C 1220.661 993.994, 1221.727 991.747, 1222.852 988.820 L 1224.896 983.500 1224.948 988.591 C 1224.977 991.391, 1224.342 995.870, 1223.537 998.544 C 1222.732 1001.219, 1222.238 1003.571, 1222.439 1003.772 C 1223.007 1004.341, 1226.764 993.792, 1227.551 989.418 C 1227.939 987.263, 1228.667 984.825, 1229.169 984 C 1230.296 982.149, 1229.664 1001.587, 1228.503 1004.500 C 1227.951 1005.884, 1228.029 1006.192, 1228.755 1005.500 C 1230.525 1003.813, 1233.081 994.934, 1233.698 988.328 C 1234.020 984.879, 1234.649 982.283, 1235.096 982.559 C 1235.542 982.835, 1236.229 985.860, 1236.621 989.280 C 1237.273 994.960, 1237.412 995.240, 1238.220 992.500 C 1238.707 990.850, 1239.141 985.675, 1239.186 981 C 1239.306 968.237, 1236.577 962.417, 1224.112 948.847 C 1220.750 945.187, 1218 941.761, 1218 941.234 C 1218 940.103, 1226.637 931.862, 1229.503 930.258 C 1232 928.861, 1231.223 928.073, 1226.614 927.325 C 1223.776 926.864, 1221.587 927.421, 1216.617 929.868 C 1209.824 933.212, 1205.903 933.793, 1204.175 931.711 C 1203.587 931.003, 1202.617 927.363, 1202.020 923.623 C 1201.422 919.882, 1200.310 915.400, 1199.548 913.661 L 1198.163 910.500 1198.082 913.434 M 1115.216 1078.420 C 1112.310 1079.140, 1106.910 1081.005, 1103.216 1082.564 C 1077.794 1093.296, 1069.886 1106.106, 1074.458 1129.147 L 1076.157 1137.708 1072.076 1144.376 C 1067.470 1151.901, 1059.540 1167.496, 1052.530 1182.813 C 1048.210 1192.252, 1047.914 1193.378, 1049.042 1196.101 C 1050.560 1199.767, 1052.739 1201.001, 1057.684 1200.997 C 1065.767 1200.990, 1083.341 1189.437, 1100.582 1172.796 L 1109.665 1164.030 1119.466 1161.484 C 1138.162 1156.626, 1150.015 1149.245, 1154.965 1139.377 C 1156.870 1135.580, 1157.501 1132.497, 1157.816 1125.455 C 1159.164 1095.307, 1138.619 1072.624, 1115.216 1078.420 M 735.500 1624.523 C 732.750 1625.287, 730.178 1625.932, 729.785 1625.956 C 729.391 1625.980, 727.479 1627.397, 725.535 1629.104 C 723.103 1631.239, 722 1633.062, 722 1634.949 C 722 1640.242, 719.800 1641, 704.421 1641.004 C 692.382 1641.007, 690.068 1641.271, 687.301 1642.958 C 683.181 1645.470, 681.634 1650.957, 682.211 1661.012 C 682.844 1672.053, 686.204 1676, 694.970 1676 C 699.081 1676, 699.692 1675.602, 712 1664.898 C 722.021 1656.183, 723.764 1655.500, 736 1655.500 C 745.398 1655.500, 747.077 1655.784, 752 1658.211 C 755.025 1659.702, 761.224 1664.314, 765.775 1668.461 L 774.051 1676 786.491 1676 L 798.930 1676 802.715 1672.814 C 804.797 1671.061, 808.525 1667.709, 811 1665.363 C 824.438 1652.629, 845.216 1652.297, 858.897 1664.597 C 861.644 1667.067, 864.852 1670.642, 866.027 1672.544 L 868.163 1676 878.131 1676 C 894.161 1676, 897.401 1672.966, 897.349 1658 C 897.315 1647.906, 895.629 1643.763, 890.881 1642.108 C 889.132 1641.499, 882.244 1641, 875.573 1641 C 862.061 1641, 859.631 1640.149, 858.506 1635.026 C 857.004 1628.191, 847.229 1624, 832.786 1624 C 820.563 1624, 814.189 1626.927, 810.352 1634.303 C 806.976 1640.793, 806.363 1641, 790.500 1641 C 774.305 1641, 774.040 1640.899, 770.139 1633.291 C 767.706 1628.547, 764.480 1625.605, 760.101 1624.139 C 755.506 1622.599, 741.648 1622.816, 735.500 1624.523 M 1047.500 1625.505 C 1045.300 1626.285, 1041.925 1628.709, 1040 1630.891 L 1036.500 1634.860 1016.500 1635.234 C 994.680 1635.642, 991.522 1636.364, 989.195 1641.472 C 987.288 1645.656, 987.743 1656.836, 990.024 1661.863 C 991.912 1666.025, 992.154 1666.193, 995.252 1665.510 C 997.038 1665.116, 1007.355 1664.582, 1018.178 1664.323 L 1037.857 1663.852 1039.517 1666.385 C 1041.303 1669.111, 1040.831 1674.338, 1038.673 1675.739 C 1038.028 1676.157, 1029.850 1676.736, 1020.500 1677.024 C 1006.927 1677.442, 1002.845 1677.901, 1000.250 1679.300 C 998.462 1680.263, 997 1681.377, 997 1681.776 C 997.001 1682.174, 999.499 1685.200, 1002.553 1688.500 C 1010.354 1696.930, 1014.143 1704.964, 1014.166 1713.122 C 1014.188 1720.900, 1013.222 1723.586, 1007.292 1732.252 C 1004.750 1735.966, 1002.952 1739.285, 1003.296 1739.629 C 1003.639 1739.973, 1005.851 1740.627, 1008.210 1741.083 C 1014.262 1742.254, 1112.227 1742.197, 1119.419 1741.019 C 1131.225 1739.086, 1133.465 1733.908, 1133.486 1708.500 C 1133.502 1689.349, 1132.699 1686.111, 1126.856 1681.770 C 1121.411 1677.724, 1117.624 1677, 1101.907 1677 C 1087.753 1677, 1087.046 1676.904, 1085.557 1674.777 C 1083.556 1671.922, 1083.563 1667.579, 1085.571 1665.571 C 1086.877 1664.266, 1089.962 1664.006, 1103.821 1664.033 C 1118.059 1664.061, 1121.305 1664.363, 1126 1666.096 C 1135.953 1669.771, 1135.761 1669.796, 1138.088 1664.533 C 1140.517 1659.042, 1141.137 1643.993, 1139.091 1640.171 C 1137.034 1636.326, 1133.488 1635.720, 1110.200 1635.229 L 1087.901 1634.760 1084.832 1630.941 C 1080.330 1625.338, 1076.016 1623.992, 1062.730 1624.044 C 1055.693 1624.071, 1050.006 1624.617, 1047.500 1625.505 M 1538.741 1625.364 C 1534.076 1627.109, 1532.268 1628.582, 1530.434 1632.128 C 1529.224 1634.468, 1529 1647.438, 1529 1715.340 C 1529 1808.743, 1530.003 1800.500, 1518.638 1800.500 C 1514.609 1800.500, 1511.601 1800.001, 1510.800 1799.201 C 1509.763 1798.164, 1509.399 1781.527, 1509 1717.023 C 1508.507 1637.357, 1508.469 1636.104, 1506.443 1633.391 C 1502.935 1628.693, 1497.881 1626.766, 1488.699 1626.626 C 1479.374 1626.483, 1472.784 1628.473, 1468.901 1632.604 L 1466.500 1635.158 1466.208 1665.727 L 1465.916 1696.296 1471.587 1711.398 C 1487.676 1754.243, 1487.055 1772.994, 1469.197 1783.543 C 1466.464 1785.157, 1466.179 1785.848, 1465.802 1791.773 C 1465.492 1796.637, 1464.922 1798.584, 1463.504 1799.621 C 1462.039 1800.692, 1456.799 1801.001, 1440.059 1801.004 C 1420.596 1801.007, 1418.195 1801.193, 1415.365 1802.919 C 1410.422 1805.933, 1408.680 1811.834, 1409.166 1823.926 C 1409.618 1835.186, 1410.964 1838.134, 1417.071 1841.248 C 1420.265 1842.877, 1427.093 1842.997, 1516.782 1842.998 C 1625.635 1843, 1618.558 1843.514, 1622.170 1835.348 C 1624.792 1829.420, 1625.066 1814.487, 1622.658 1808.725 C 1619.739 1801.737, 1617.146 1801.008, 1595.184 1801.004 C 1584.073 1801.002, 1575.065 1800.570, 1573.977 1799.988 C 1572.937 1799.431, 1571.788 1797.386, 1571.424 1795.444 C 1570.862 1792.453, 1569.983 1791.518, 1565.679 1789.338 C 1555.568 1784.214, 1551.804 1779.992, 1548.529 1770.105 C 1547.143 1765.917, 1546.850 1762.652, 1547.223 1755.522 C 1547.755 1745.357, 1546.865 1747.463, 1563.073 1718 L 1570.500 1704.500 1570.787 1669.772 C 1571.107 1631.052, 1571.112 1631.086, 1564.422 1626.952 C 1559.786 1624.087, 1544.656 1623.151, 1538.741 1625.364 M 970.404 1626.974 C 969.251 1627.440, 962.726 1632.265, 955.904 1637.696 C 949.082 1643.127, 939.900 1650.314, 935.500 1653.667 C 924.216 1662.267, 922.802 1664.006, 922.227 1669.985 C 921.619 1676.322, 923.852 1682.637, 929.187 1689.661 C 936.274 1698.993, 943.325 1700.300, 954.599 1694.371 C 966.156 1688.293, 982 1676.391, 982 1673.788 C 982 1673.345, 980.688 1671.172, 979.085 1668.958 C 973.056 1660.636, 972.571 1642.822, 978.086 1632.336 C 979.689 1629.289, 981 1626.618, 981 1626.398 C 981 1625.659, 972.517 1626.120, 970.404 1626.974 M 1275.450 1627.339 C 1271.382 1629.201, 1268.234 1633.107, 1261.949 1644.089 C 1257.016 1652.710, 1247.822 1665.455, 1237.489 1678 C 1232.224 1684.392, 1230.451 1689.261, 1231.450 1694.587 C 1232.007 1697.556, 1233.861 1700.023, 1240.080 1706.078 L 1248 1713.788 1248 1747.245 C 1248 1787.394, 1248.202 1788.374, 1257.500 1793.356 C 1261.456 1795.477, 1262.127 1795.500, 1319 1795.500 C 1383.432 1795.500, 1380.897 1795.778, 1384.615 1788.294 C 1386.363 1784.775, 1386.500 1781.707, 1386.500 1746 C 1386.500 1724.825, 1386.135 1705.365, 1385.689 1702.755 C 1384.581 1696.265, 1381.142 1692.524, 1373.838 1689.861 C 1365.380 1686.777, 1364.943 1685.381, 1368.973 1674.331 C 1374.938 1657.978, 1373.296 1648.912, 1363.483 1644.012 C 1358.710 1641.629, 1357.510 1641.502, 1335.036 1641.012 L 1311.571 1640.500 1308.636 1636.126 C 1304.550 1630.036, 1297.502 1626.903, 1286.656 1626.355 C 1281.024 1626.071, 1277.556 1626.375, 1275.450 1627.339 M 1190.500 1633.164 C 1183.422 1637.069, 1177.002 1648.064, 1177.001 1656.282 C 1177 1662.557, 1178.871 1666.801, 1183.386 1670.766 C 1186.614 1673.600, 1187.776 1674.001, 1192.785 1674.010 C 1196.697 1674.017, 1201.593 1675.101, 1208.304 1677.445 L 1218.108 1680.871 1221.741 1675.185 C 1223.739 1672.058, 1228.679 1665.717, 1232.718 1661.094 C 1236.757 1656.470, 1239.911 1652.195, 1239.725 1651.594 C 1239.144 1649.713, 1219.879 1638.630, 1211.294 1635.238 C 1202.672 1631.830, 1194.411 1631.007, 1190.500 1633.164 M 730.375 1669.086 C 724.117 1670.901, 697.235 1696.846, 694.255 1703.948 C 691.482 1710.555, 694.232 1718.193, 701.959 1725.341 C 704.181 1727.398, 706 1730.002, 706 1731.129 C 706 1732.256, 703.060 1736.399, 699.466 1740.337 C 692.503 1747.966, 688 1755.707, 688 1760.048 C 688 1761.509, 689.039 1764.233, 690.309 1766.102 C 692.887 1769.897, 693.683 1770.004, 703.833 1767.918 C 709.055 1766.844, 711.860 1766.850, 719.833 1767.947 C 737.696 1770.405, 736.948 1770.398, 739.345 1768.145 C 744.439 1763.360, 754.787 1761.730, 761.929 1764.588 C 765.873 1766.167, 765.921 1766.158, 769.699 1763.133 C 771.790 1761.460, 775.188 1759.389, 777.250 1758.532 C 780.520 1757.173, 781 1756.547, 781 1753.646 C 781 1751.817, 782.371 1747.575, 784.047 1744.222 C 787.679 1736.953, 787.115 1735.215, 780 1731.760 C 774.659 1729.166, 759.917 1728.134, 753.381 1729.896 C 748.062 1731.330, 744 1734.558, 744 1737.350 C 744 1741.397, 741.265 1744, 737.015 1744 C 734.828 1744, 732.459 1743.316, 731.571 1742.429 C 727.823 1738.680, 731.104 1728.635, 738.005 1722.728 C 744.751 1716.954, 750.342 1715.493, 765.500 1715.544 L 778.500 1715.587 778.503 1710.955 C 778.505 1708.144, 779.463 1704.281, 780.941 1701.127 L 783.375 1695.930 781.248 1693.803 C 779.537 1692.093, 777.557 1691.586, 771.130 1691.214 C 758.954 1690.509, 757.262 1691.107, 747.629 1699.529 C 741.718 1704.697, 738.286 1707, 736.496 1707 C 733.527 1707, 729 1702.952, 729 1700.297 C 729 1697.951, 741.907 1685.836, 749.276 1681.266 L 755.052 1677.684 752.856 1675.347 C 747.406 1669.546, 737.911 1666.902, 730.375 1669.086 M 828.500 1670.240 C 821.001 1672.176, 795.509 1699.877, 793.058 1708.751 C 791.674 1713.764, 794.230 1719.148, 801.914 1727.408 C 805.261 1731.006, 808 1734.457, 808 1735.078 C 808 1735.698, 805.908 1738.522, 803.350 1741.353 C 798.284 1746.960, 795.010 1751.809, 795.004 1753.711 C 795.002 1754.378, 796.908 1755.437, 799.241 1756.065 C 805.018 1757.621, 807.856 1759.727, 819.679 1771.237 C 830.771 1782.034, 830.833 1782.054, 836 1776.493 C 840.634 1771.505, 852.207 1766.892, 863.500 1765.531 C 868.798 1764.893, 878.746 1766.954, 882.629 1769.494 C 884.529 1770.737, 884.972 1770.651, 886.754 1768.694 C 890.199 1764.908, 891.248 1761.952, 890.595 1757.870 C 889.045 1748.178, 879.530 1732.955, 873.429 1730.406 C 867.843 1728.072, 855.814 1728.881, 851.096 1731.908 C 850.323 1732.404, 849.340 1735.395, 848.911 1738.555 C 848.483 1741.715, 847.540 1744.676, 846.816 1745.135 C 844.608 1746.535, 838.239 1746.096, 836.571 1744.429 C 834.589 1742.446, 834.460 1733.229, 836.351 1728.702 C 838.289 1724.064, 844.151 1719.330, 850.167 1717.543 C 856.409 1715.689, 872.563 1715.489, 878.255 1717.195 C 881.815 1718.261, 882.390 1718.187, 883.621 1716.503 C 885.738 1713.608, 885.374 1705.745, 882.982 1702.704 C 880.656 1699.747, 870.410 1694.355, 865.293 1693.395 C 859.663 1692.339, 854.557 1694.548, 847.613 1701.043 C 843.366 1705.016, 840.417 1707, 838.757 1707 C 835.520 1707, 831 1703.411, 831 1700.841 C 831 1698.011, 842.462 1686.352, 848.750 1682.786 C 851.638 1681.149, 854 1679.486, 854 1679.092 C 854 1677.588, 848.315 1673.034, 844 1671.081 C 839.113 1668.869, 834.730 1668.631, 828.500 1670.240 M 1297.850 1670.129 C 1295.235 1671.087, 1290.789 1676.795, 1289.006 1681.483 C 1288.309 1683.316, 1288.536 1684.441, 1289.955 1686.195 C 1291.670 1688.315, 1292.728 1688.526, 1303.160 1688.825 C 1317.812 1689.246, 1319.305 1688.649, 1322.967 1680.906 C 1326.198 1674.073, 1325.899 1670.991, 1321.893 1669.869 C 1318.234 1668.845, 1300.842 1669.033, 1297.850 1670.129 M 1423 1681.084 C 1414.345 1685.008, 1411 1689.863, 1411 1698.503 C 1411 1703.019, 1412.232 1707.245, 1417.355 1720.303 C 1420.851 1729.211, 1425.873 1743.025, 1428.517 1751 C 1434.177 1768.078, 1436.032 1771.299, 1441.849 1774.146 C 1445.753 1776.057, 1446.724 1776.155, 1451.349 1775.111 C 1467.490 1771.468, 1471.804 1762.729, 1466.992 1743.422 C 1462.827 1726.714, 1449.171 1691.621, 1444.354 1685.249 C 1439.479 1678.799, 1431.481 1677.239, 1423 1681.084 M 1597.259 1684.109 C 1595.064 1685.515, 1592.919 1688.495, 1590.614 1693.343 C 1581.294 1712.942, 1572.498 1730.533, 1567.284 1740 L 1561.500 1750.500 1561.500 1759.182 C 1561.500 1767.376, 1561.661 1768.032, 1564.368 1770.859 C 1568.837 1775.529, 1576.292 1778.306, 1582.886 1777.760 C 1587.986 1777.337, 1588.739 1776.931, 1592.949 1772.337 C 1597.895 1766.940, 1608.270 1748.904, 1614.807 1734.338 C 1625.153 1711.288, 1627.863 1694.997, 1622.379 1688.830 C 1616.855 1682.617, 1603.505 1680.109, 1597.259 1684.109 M 1187 1688.722 C 1181.062 1690.953, 1174.573 1699.994, 1173.428 1707.633 C 1172.061 1716.746, 1178.973 1724.805, 1195.887 1733.817 C 1203.589 1737.921, 1203.866 1737.986, 1211.116 1737.387 C 1217.660 1736.847, 1224.836 1737.613, 1231.750 1739.590 C 1233.977 1740.227, 1234 1740.129, 1234 1730.185 L 1234 1720.137 1229.062 1715.461 C 1226.346 1712.889, 1223.047 1709.146, 1221.731 1707.143 C 1220.415 1705.139, 1218.250 1701.823, 1216.919 1699.774 C 1212.220 1692.538, 1194.381 1685.948, 1187 1688.722 M 981.144 1694.070 C 979.848 1694.589, 975.123 1697.443, 970.644 1700.413 C 961.108 1706.734, 953.714 1710.325, 945.799 1712.477 C 941.922 1713.531, 938.083 1715.640, 933.799 1719.069 C 925.359 1725.823, 923.168 1728.828, 921.832 1735.483 C 919.518 1747.004, 924.040 1756.240, 934.226 1760.797 C 942.825 1764.645, 942.436 1762.867, 943 1800.853 C 943.571 1839.301, 943.750 1840.231, 951.217 1843.598 C 957.529 1846.444, 977 1845.741, 977 1842.666 C 977 1841.982, 976.100 1839.658, 975 1837.500 C 971.824 1831.270, 972.444 1826.590, 979 1807.336 C 982.300 1797.644, 985 1788.638, 985 1787.324 C 985 1786.009, 983.915 1782.792, 982.588 1780.174 C 978.402 1771.912, 976.682 1764.333, 977.306 1756.891 C 978.014 1748.441, 979.730 1745.116, 990.412 1731.492 C 995.152 1725.446, 999.468 1718.900, 1000.001 1716.945 C 1001.678 1710.803, 998.658 1703.704, 991.599 1697.198 C 986.945 1692.908, 985.285 1692.412, 981.144 1694.070 M 1026 1699.234 C 1023.714 1700.439, 1023.475 1701.204, 1023.210 1708.165 C 1022.842 1717.816, 1023.803 1719, 1032 1719 C 1039.872 1719, 1041 1717.762, 1041 1709.120 C 1041 1705.087, 1040.465 1701.651, 1039.668 1700.560 C 1037.951 1698.213, 1029.493 1697.392, 1026 1699.234 M 1057.250 1698.977 C 1055.173 1699.862, 1055 1700.578, 1055 1708.268 C 1055 1713.415, 1055.459 1717.059, 1056.200 1717.800 C 1056.860 1718.460, 1059.984 1719, 1063.143 1719 C 1067.945 1719, 1069.142 1718.635, 1070.443 1716.777 C 1072.402 1713.981, 1072.552 1703.137, 1070.668 1700.560 C 1069.119 1698.442, 1060.808 1697.461, 1057.250 1698.977 M 1089 1699.235 C 1086.704 1700.444, 1086.476 1701.192, 1086.206 1708.371 C 1086.022 1713.274, 1086.347 1716.714, 1087.079 1717.595 C 1087.855 1718.531, 1090.357 1719, 1094.566 1719 C 1099.964 1719, 1101.114 1718.676, 1102.443 1716.777 C 1104.672 1713.595, 1104.529 1703.875, 1102.211 1701.012 C 1100.001 1698.283, 1092.675 1697.298, 1089 1699.235 M 1284.338 1714.476 C 1281.661 1716.351, 1280.612 1721.844, 1281.968 1726.882 C 1283.220 1731.532, 1284.190 1732, 1292.582 1732 C 1301.066 1732, 1303 1730.237, 1303 1722.500 C 1303 1714.801, 1301.052 1713, 1292.723 1713 C 1288.807 1713, 1285.652 1713.555, 1284.338 1714.476 M 1335.073 1715.635 C 1332.541 1718.854, 1332.262 1726.501, 1334.557 1729.777 C 1335.922 1731.727, 1337.005 1732, 1343.366 1732 C 1353.207 1732, 1354.467 1730.977, 1354.467 1722.991 C 1354.467 1714.790, 1352.495 1713, 1343.462 1713 C 1337.829 1713, 1336.921 1713.285, 1335.073 1715.635 M 1132 1752.279 C 1127.527 1754.487, 1127.150 1754.502, 1068 1754.813 C 1026.792 1755.030, 1006.256 1754.775, 1001.200 1753.983 C 995.572 1753.101, 993.568 1753.114, 992.450 1754.042 C 989.492 1756.496, 991.303 1772.215, 994.791 1774.371 C 995.339 1774.710, 997.692 1774.314, 1000.019 1773.493 C 1002.529 1772.608, 1007.792 1772, 1012.951 1772 C 1020.890 1772, 1021.853 1771.786, 1023.952 1769.551 C 1025.218 1768.204, 1028.301 1766.404, 1030.805 1765.551 C 1036.254 1763.694, 1049.024 1763.619, 1054 1765.415 C 1057.020 1766.505, 1058.048 1766.429, 1061.500 1764.861 C 1066.468 1762.604, 1075.102 1762.475, 1081.238 1764.566 C 1083.765 1765.427, 1088.657 1768.096, 1092.109 1770.499 C 1098.366 1774.853, 1098.395 1774.862, 1101.942 1773.339 C 1113.618 1768.328, 1121.438 1767.655, 1128.859 1771.022 C 1134.403 1773.538, 1135.532 1773.506, 1137.443 1770.777 C 1139.392 1767.996, 1139.614 1754.199, 1137.750 1751.720 C 1136.596 1750.185, 1136.155 1750.228, 1132 1752.279 M 1210.500 1751.963 C 1206.104 1753.802, 1201.699 1760.385, 1192.076 1779.500 C 1186.538 1790.500, 1179.775 1803.713, 1177.048 1808.863 C 1172.099 1818.206, 1170.249 1824.873, 1171.368 1829.331 C 1172.633 1834.370, 1182.980 1841.481, 1191.319 1843.042 C 1196.307 1843.976, 1202.668 1842.491, 1206.632 1839.467 C 1210.259 1836.701, 1217.246 1823.547, 1227.385 1800.397 L 1234 1785.293 1234 1770.769 C 1234 1759.331, 1233.693 1755.990, 1232.556 1755.047 C 1228.881 1751.997, 1215.045 1750.062, 1210.500 1751.963 M 1284.003 1754.797 C 1281.857 1756.534, 1281.533 1757.610, 1281.533 1763 C 1281.533 1771.181, 1283.514 1773, 1292.420 1773 C 1300.778 1773, 1302.244 1771.779, 1302.779 1764.372 C 1303.390 1755.927, 1301.460 1753.751, 1292.870 1753.204 C 1287.573 1752.867, 1286.047 1753.141, 1284.003 1754.797 M 1335.452 1755.457 C 1333.002 1757.907, 1332.808 1758.665, 1333.208 1764.204 C 1333.758 1771.797, 1335.177 1773, 1343.580 1773 C 1352.514 1773, 1354.510 1771.162, 1354.400 1763.039 C 1354.291 1755.026, 1352.990 1753.722, 1344.579 1753.186 C 1338.649 1752.808, 1337.919 1752.990, 1335.452 1755.457 M 786.939 1769.389 C 778.165 1771.709, 771 1778.721, 771 1784.987 C 771 1787.969, 771.928 1790.006, 775.182 1794.160 C 780.518 1800.973, 791.654 1811.748, 795.341 1813.667 C 801.004 1816.614, 809.619 1813.485, 816.347 1806.038 C 822.883 1798.803, 822.133 1792.761, 813.513 1783.206 C 808.128 1777.239, 797.769 1769.553, 794 1768.729 C 792.625 1768.429, 789.447 1768.726, 786.939 1769.389 M 1068.313 1777.113 C 1064.616 1778.170, 1059.360 1784.083, 1058.456 1788.201 C 1057.663 1791.810, 1059.858 1795.312, 1066.500 1801.037 C 1074.066 1807.558, 1079.995 1811, 1083.661 1811 C 1088.213 1811, 1089.322 1808.601, 1087.880 1801.874 C 1087.261 1798.988, 1087.024 1794.042, 1087.354 1790.883 C 1087.935 1785.331, 1087.847 1785.049, 1084.727 1782.418 C 1079.210 1777.766, 1073.022 1775.766, 1068.313 1777.113 M 748.027 1779.693 C 745.973 1782.304, 745.918 1783.182, 746.204 1808.622 C 746.485 1833.486, 746.610 1835.006, 748.605 1837.679 C 749.762 1839.231, 752.237 1841.400, 754.105 1842.500 C 757.287 1844.375, 759.610 1844.519, 791.199 1844.810 C 826.869 1845.139, 833.226 1844.618, 840.935 1840.739 C 848.049 1837.159, 848.077 1836.738, 842.090 1822.826 C 839.172 1816.047, 836.178 1809.860, 835.435 1809.078 C 834.280 1807.862, 833.163 1808.618, 827.739 1814.288 C 819.044 1823.376, 810.579 1827.397, 800.009 1827.457 C 789.755 1827.516, 786.631 1825.793, 773.938 1813.079 C 760.929 1800.049, 757 1793.151, 757 1783.340 L 757 1777 753.573 1777 C 751.042 1777, 749.591 1777.705, 748.027 1779.693 M 1037.116 1777.907 C 1035.996 1778.616, 1036.219 1779.422, 1038.291 1782.142 C 1044.205 1789.905, 1044.243 1799.112, 1038.445 1819.025 C 1034.024 1834.211, 1033.859 1837.622, 1037.402 1840.669 C 1041.475 1844.172, 1046.273 1845.072, 1064 1845.655 C 1088.659 1846.467, 1098.643 1844.684, 1102.350 1838.807 C 1103.457 1837.052, 1101.519 1830.973, 1098.039 1825.286 C 1096.087 1822.094, 1096.048 1822.082, 1092.569 1823.536 C 1083.081 1827.500, 1073.725 1824.369, 1059.032 1812.312 C 1045.782 1801.440, 1042.501 1794.668, 1045.495 1784.369 C 1046.844 1779.727, 1046.903 1778.554, 1045.821 1777.868 C 1044.091 1776.771, 1038.873 1776.794, 1037.116 1777.907 M 857.500 1780.399 C 847.521 1783.555, 844.429 1786.711, 845.260 1792.894 C 845.927 1797.860, 853.081 1815.643, 858.778 1826.495 C 864.684 1837.747, 868.324 1840.349, 877.179 1839.651 C 884.444 1839.077, 892.414 1834.842, 895.770 1829.771 C 899.661 1823.891, 898.660 1818.534, 890.697 1802.629 C 883.398 1788.051, 879.269 1782.428, 874.357 1780.376 C 870.327 1778.692, 862.865 1778.702, 857.500 1780.399 M 702.751 1782.504 C 701.239 1783.362, 698.942 1786.186, 697.646 1788.781 C 694.014 1796.056, 684.910 1819.781, 684.294 1823.578 C 683.091 1830.990, 688.159 1836.023, 700.347 1839.520 C 712.766 1843.084, 719.287 1839.369, 727.305 1824.162 L 732.053 1815.158 731.776 1799.841 L 731.500 1784.524 728.500 1783.087 C 723.967 1780.916, 706.260 1780.515, 702.751 1782.504 M 1110.256 1784.970 C 1104.119 1787.756, 1101 1791.229, 1101 1795.277 C 1101 1797.200, 1102.850 1802.475, 1105.312 1807.573 C 1107.684 1812.483, 1110.929 1819.602, 1112.523 1823.393 C 1115.843 1831.288, 1119.173 1834.003, 1125.500 1833.974 C 1130.400 1833.952, 1136.654 1831.181, 1140 1827.551 C 1143.866 1823.357, 1143.550 1814.724, 1139.194 1805.500 C 1134.415 1795.379, 1128.124 1786.116, 1124.898 1784.447 C 1121.061 1782.463, 1115.328 1782.668, 1110.256 1784.970 M 1004.325 1786.459 C 1002.579 1787.219, 1000.482 1788.888, 999.664 1790.170 C 997.391 1793.731, 987 1825.480, 987 1828.863 C 987 1834.672, 997.017 1841, 1006.214 1841 C 1010.557 1841, 1015.464 1838.561, 1017.843 1835.220 C 1020.608 1831.337, 1026.584 1813.465, 1028.128 1804.459 C 1030.100 1792.960, 1028.113 1789.418, 1018.117 1786.613 C 1011.196 1784.671, 1008.506 1784.641, 1004.325 1786.459 M 1241.325 1812.459 C 1236.696 1814.473, 1234.800 1818.067, 1234.240 1825.890 C 1233.572 1835.224, 1235.152 1839.709, 1239.859 1841.847 C 1243.132 1843.333, 1250.424 1843.500, 1312 1843.500 C 1387.716 1843.500, 1386 1843.638, 1388.623 1837.360 C 1389.380 1835.547, 1389.998 1830.787, 1389.996 1826.782 C 1389.992 1817.645, 1387.886 1813.618, 1382.302 1812.067 C 1379.802 1811.373, 1355.562 1811.023, 1311.500 1811.045 C 1256.769 1811.072, 1243.919 1811.331, 1241.325 1812.459 M 757.510 1888.175 C 748.848 1889.827, 740.078 1894.738, 732.982 1901.911 C 721.523 1913.494, 717.480 1925.180, 718.259 1944.467 C 718.821 1958.374, 720.789 1965.116, 726.720 1973.449 C 737.071 1987.992, 753.051 1994.486, 773 1992.255 C 778.225 1991.671, 784.975 1990.362, 788 1989.347 L 793.500 1987.500 793.797 1980.706 L 794.093 1973.912 789.936 1976.033 C 783.488 1979.322, 772.563 1981.267, 765.005 1980.472 C 750.922 1978.990, 741.488 1972.800, 735.847 1961.341 C 732.925 1955.406, 732.580 1953.726, 732.191 1943.560 C 731.872 1935.219, 732.168 1930.941, 733.344 1926.917 C 736.903 1914.736, 745.660 1905.037, 756.500 1901.270 C 764.363 1898.538, 778.671 1899.026, 787.250 1902.319 L 794 1904.910 794 1898.077 C 794 1891.559, 793.873 1891.191, 791.250 1890.124 C 783.813 1887.100, 767.952 1886.184, 757.510 1888.175 M 1202.355 1887.981 C 1192.727 1890.023, 1182.732 1897.577, 1179.549 1905.218 C 1177.045 1911.228, 1177.534 1919.722, 1180.750 1926.070 C 1184.173 1932.828, 1189.259 1936.743, 1206.276 1945.719 C 1213.303 1949.426, 1220.439 1953.889, 1222.134 1955.638 C 1227.677 1961.357, 1227.697 1971.201, 1222.177 1976.134 C 1214.377 1983.103, 1192.257 1981.852, 1180.750 1973.790 L 1178 1971.864 1178 1979.483 L 1178 1987.102 1181.750 1988.675 C 1183.813 1989.540, 1189.325 1990.918, 1194 1991.738 C 1203.971 1993.485, 1217.078 1992.386, 1224.282 1989.200 C 1234.531 1984.666, 1240.268 1976.201, 1240.224 1965.676 C 1240.168 1951.964, 1233.583 1944.301, 1213 1933.994 C 1196.525 1925.745, 1192.011 1921.259, 1192.004 1913.132 C 1192.001 1909.409, 1192.558 1908.206, 1195.786 1904.978 C 1200.735 1900.029, 1206.081 1898.595, 1216.814 1899.337 C 1222.594 1899.737, 1226.784 1900.670, 1230.564 1902.400 L 1236 1904.889 1236 1897.492 L 1236 1890.094 1232.250 1888.951 C 1227.419 1887.479, 1207.732 1886.840, 1202.355 1887.981 M 814.241 1939.750 L 814.500 1990.500 821.250 1990.796 L 828 1991.091 828 1940.046 L 828 1889 820.991 1889 L 813.982 1889 814.241 1939.750 M 854 1940.115 L 854 1991.230 874.250 1990.724 C 896 1990.180, 900.812 1989.336, 910.843 1984.309 C 917.743 1980.851, 927.620 1971.221, 931.235 1964.425 C 938.973 1949.878, 939.005 1927.967, 931.309 1913.826 C 927.898 1907.559, 918.826 1898.959, 911.953 1895.476 C 901.086 1889.970, 895.367 1889, 873.753 1889 L 854 1889 854 1940.115 M 957 1940 L 957 1991 984.500 1991 L 1012 1991 1012 1985 L 1012 1979 991 1979 L 970 1979 970 1962 L 970 1945 988.500 1945 L 1007 1945 1007 1939 L 1007 1933 988.500 1933 L 970 1933 970 1917.021 L 970 1901.042 989.750 1900.771 L 1009.500 1900.500 1009.800 1894.750 L 1010.100 1889 983.550 1889 L 957 1889 957 1940 M 1071 1940 L 1071 1991 1077.481 1991 L 1083.962 1991 1084.231 1968.750 L 1084.500 1946.500 1102.750 1946.227 L 1121 1945.955 1121 1940.500 L 1121 1935.045 1102.750 1934.773 L 1084.500 1934.500 1084.226 1917.771 L 1083.952 1901.042 1103.726 1900.771 L 1123.500 1900.500 1123.800 1894.750 L 1124.100 1889 1097.550 1889 L 1071 1889 1071 1940 M 1143 1940 L 1143 1991 1149.500 1991 L 1156 1991 1156 1940 L 1156 1889 1149.500 1889 L 1143 1889 1143 1940 M 1260 1940 L 1260 1991 1267 1991 L 1274 1991 1274 1968 L 1274 1945 1299.500 1945 L 1325 1945 1325 1968.046 L 1325 1991.091 1331.750 1990.796 L 1338.500 1990.500 1338.759 1939.750 L 1339.018 1889 1332.009 1889 L 1325 1889 1325 1911 L 1325 1933 1299.500 1933 L 1274 1933 1274 1911 L 1274 1889 1267 1889 L 1260 1889 1260 1940 M 1365 1940 L 1365 1991 1392.500 1991 L 1420 1991 1420 1985 L 1420 1979 1399 1979 L 1378 1979 1378 1962 L 1378 1945 1396.550 1945 L 1415.100 1945 1414.800 1939.250 L 1414.500 1933.500 1396.250 1933.227 L 1378 1932.955 1378 1916.977 L 1378 1901 1397.500 1901 L 1417 1901 1417 1895 L 1417 1889 1391 1889 L 1365 1889 1365 1940 M 1439 1939.915 L 1439 1991 1445.500 1991 L 1452 1991 1452 1969.500 L 1452 1948 1457.750 1948.006 C 1470.860 1948.018, 1473.848 1950.629, 1488.350 1974.750 L 1498.120 1991 1505.560 1991 C 1509.652 1991, 1513 1990.719, 1513 1990.376 C 1513 1989.532, 1492.955 1957.609, 1489.007 1952.164 C 1487.278 1949.780, 1484.547 1947.080, 1482.938 1946.164 C 1481.329 1945.249, 1480.011 1944.275, 1480.010 1944 C 1480.009 1943.725, 1482.119 1942.631, 1484.701 1941.570 C 1494.484 1937.545, 1500.558 1929.521, 1501.638 1919.193 C 1502.872 1907.386, 1497.745 1897.533, 1487.590 1892.197 C 1482.599 1889.575, 1482.075 1889.516, 1460.750 1889.177 L 1439 1888.831 1439 1939.915 M 1513 1889.506 C 1513 1889.784, 1520.200 1904.407, 1529 1922 L 1545 1953.988 1545 1972.494 L 1545 1991 1551.500 1991 L 1558 1991 1558 1972.441 L 1558 1953.882 1570.614 1929.691 C 1577.552 1916.386, 1585.204 1901.787, 1587.619 1897.250 L 1592.010 1889 1584.755 1889.007 L 1577.500 1889.014 1565 1913.980 C 1558.125 1927.711, 1552.207 1938.958, 1551.848 1938.973 C 1551.489 1938.988, 1550.760 1937.763, 1550.228 1936.250 C 1549.696 1934.737, 1544.406 1923.487, 1538.474 1911.250 L 1527.687 1889 1520.344 1889 C 1516.305 1889, 1513 1889.228, 1513 1889.506 M 1452 1918.084 L 1452 1936.167 1463.828 1935.834 C 1474.851 1935.523, 1475.946 1935.308, 1479.916 1932.677 C 1490.215 1925.854, 1490.664 1911.065, 1480.796 1903.697 C 1477.419 1901.176, 1471.501 1900.097, 1460.750 1900.044 L 1452 1900 1452 1918.084 M 867.500 1940 L 867.500 1979 878 1978.985 C 909.321 1978.941, 923.936 1965.128, 922.822 1936.620 C 922.357 1924.735, 919.782 1917.911, 913.409 1911.676 C 905.264 1903.708, 896.813 1901, 880.093 1901 L 867.500 1901 867.500 1940" stroke="none" fill="black" fill-rule="evenodd"/>
</svg>