<svg width="58" height="58" viewBox="0 0 58 58" fill="none" xmlns="http://www.w3.org/2000/svg">
<circle cx="29" cy="29" r="29" fill="#3A4B5B"/>
<path d="M38.5033 19.4963H19.496C19.0759 19.4963 18.673 19.3294 18.376 19.0323C18.0789 18.7353 17.912 18.3324 17.912 17.9123C17.912 17.4922 18.0789 17.0893 18.376 16.7923C18.673 16.4952 19.0759 16.3284 19.496 16.3284H38.5033C38.9234 16.3284 39.3263 16.4952 39.6234 16.7923C39.9204 17.0893 40.0873 17.4922 40.0873 17.9123C40.0873 18.3324 39.9204 18.7353 39.6234 19.0323C39.3263 19.3294 38.9234 19.4963 38.5033 19.4963ZM38.5033 41.6715H19.496C19.0759 41.6715 18.673 41.5046 18.376 41.2076C18.0789 40.9105 17.912 40.5077 17.912 40.0876C17.912 39.6675 18.0789 39.2646 18.376 38.9676C18.673 38.6705 19.0759 38.5036 19.496 38.5036H38.5033C38.9234 38.5036 39.3263 38.6705 39.6234 38.9676C39.9204 39.2646 40.0873 39.6675 40.0873 40.0876C40.0873 40.5077 39.9204 40.9105 39.6234 41.2076C39.3263 41.5046 38.9234 41.6715 38.5033 41.6715ZM41.6712 35.3357H16.3281C15.908 35.3357 15.5051 35.1689 15.2081 34.8718C14.911 34.5748 14.7441 34.1719 14.7441 33.7518V24.2481C14.7441 23.828 14.911 23.4251 15.2081 23.1281C15.5051 22.831 15.908 22.6642 16.3281 22.6642H41.6712C42.0913 22.6642 42.4942 22.831 42.7913 23.1281C43.0883 23.4251 43.2552 23.828 43.2552 24.2481V33.7518C43.2552 34.1719 43.0883 34.5748 42.7913 34.8718C42.4942 35.1689 42.0913 35.3357 41.6712 35.3357ZM17.912 32.1678H40.0873V25.8321H17.912V32.1678Z" fill="white"/>
</svg>
