<svg width="58" height="58" viewBox="0 0 58 58" fill="none" xmlns="http://www.w3.org/2000/svg">
<path d="M0 29C0 36.6913 3.05535 44.0675 8.4939 49.5061C13.9325 54.9447 21.3087 58 29 58C36.6913 58 44.0675 54.9447 49.5061 49.5061C54.9447 44.0675 58 36.6913 58 29C58 21.3087 54.9447 13.9325 49.5061 8.4939C44.0675 3.05535 36.6913 0 29 0C21.3087 0 13.9325 3.05535 8.4939 8.4939C3.05535 13.9325 0 21.3087 0 29Z" fill="#E9C187"/>
<path d="M29.0002 25.0808C30.7318 25.0808 32.3924 24.4012 33.6168 23.1915C34.8413 21.9818 35.5291 20.3412 35.5291 18.6304C35.5291 16.9197 34.8413 15.279 33.6168 14.0693C32.3924 12.8596 30.7318 12.1801 29.0002 12.1801C27.2686 12.1801 25.6079 12.8596 24.3835 14.0693C23.159 15.279 22.4712 16.9197 22.4712 18.6304C22.4712 20.3412 23.159 21.9818 24.3835 23.1915C25.6079 24.4012 27.2686 25.0808 29.0002 25.0808ZM29.0002 42.6301C24.7602 42.6301 20.527 41.7022 16.3005 39.8466C16.1099 39.7628 15.948 39.6262 15.8344 39.4534C15.7207 39.2806 15.6602 39.0789 15.6602 38.8728C15.6602 35.2336 16.9624 32.127 19.5668 29.553C22.1721 26.98 25.3166 25.6935 29.0002 25.6935C32.6837 25.6935 35.8277 26.98 38.4321 29.553C41.0375 32.127 42.3402 35.2336 42.3402 38.8728C42.34 39.0791 42.2793 39.2809 42.1654 39.4537C42.0515 39.6265 41.8892 39.763 41.6984 39.8466C37.4729 41.7022 33.2401 42.6301 29.0002 42.6301Z" fill="white"/>
<path opacity="0.8" d="M25.0276 35.37C24.9378 35.5758 24.916 35.8042 24.965 36.023C25.0141 36.2417 25.1317 36.4396 25.3011 36.5886L28.5731 39.461C28.7707 39.6343 29.0257 39.73 29.2899 39.73C29.5542 39.73 29.8092 39.6343 30.0068 39.461L33.2773 36.5886C33.447 36.4395 33.5648 36.2414 33.6139 36.0223C33.663 35.8033 33.6409 35.5745 33.5508 35.3686L30.2803 27.9019C30.1965 27.7112 30.0582 27.5488 29.8822 27.4348C29.7063 27.3208 29.5004 27.26 29.2899 27.26C29.0795 27.26 28.8736 27.3208 28.6977 27.4348C28.5217 27.5488 28.3834 27.7112 28.2996 27.9019L25.0276 35.3686V35.37Z" fill="#E9C187"/>
</svg>
