<svg width="58" height="58" viewBox="0 0 58 58" fill="none" xmlns="http://www.w3.org/2000/svg">
  <title>China saline lake raw material network icon</title>
  <circle cx="29" cy="29" r="29" fill="#497EB8"/>
  <svg x="12" y="12" width="34" height="34" viewBox="0 0 1024 1024" aria-hidden="true">
    <path d="M71.71 627.75s-34.83-32.12 55.58-104.92 69.66-132.76 69.66-148.46 16.3-71.37 128.94-74.23 426.83 24.27 434.24 22.84 173.4-1.43 192.67 11.42c19.27 12.85-14.82 119.91-45.94 117.05-31.12-2.85-51.87 109.92-50.39 122.76 1.48 12.85 32.73 127.03-30.07 106.6-19.28-6.27-54.41-49.5-64.78-49.5s-103.74 22.84-124.49 31.4-171.92 2.85-189.7-28.55c-17.78-31.4-259.36 5.71-280.11 5.71s-89.25 11.14-95.61-12.12z" fill="white"/>
    <path d="M839.97 697.75c-5.24 0-11.23-0.91-18.06-3.13-13.14-4.27-28.26-18.32-42.88-31.91-6.08-5.65-14.95-13.89-19.2-16.67-16.73 2.39-98.08 22.2-117.18 30.09-15.29 6.31-64.45 5.61-102.95 1.74-24.15-2.43-45.59-6.17-62.02-10.83-22.44-6.36-35.96-14.29-42.41-24.9-2.49-1.66-17.86-8.94-91.53-4.82-47.34 2.64-100.76 8.86-136.11 12.98-23.71 2.76-35.33 4.09-40.34 4.09-3.67 0-9.64 0.44-16.55 0.96-34.35 2.55-80.9 6-91.85-20.3-3.52-4.65-8.73-13.98-8.26-28.01 0.94-28.02 23.67-60.15 67.55-95.49 73.23-58.97 67.48-107.26 65.03-127.88-0.42-3.5-0.78-6.53-0.78-9.29 0-13.79 7.11-34.89 27.06-52.74 25.23-22.57 64.26-34.67 116.01-35.98 79.82-2.03 255.81 10.58 360.96 18.11 35.8 2.56 66.82 4.78 72.29 4.78h0.16c11.05-1.09 59.37-0.78 93.54 0.31 92.55 2.95 103.63 10.34 108.36 13.49 9.4 6.27 13.25 18.39 11.76 37.07-1.02 12.8-4.57 28.3-9.99 43.63-6.98 19.75-26.47 65.26-56.71 62.88-3.01 1.28-13.1 12.42-23.59 48.62-7.85 27.11-11.58 53.16-11.42 58.16 0.16 1.14 0.83 4.44 1.42 7.37 8.63 42.58 14.43 88.82-8.02 108.83-4.99 4.47-12.82 8.84-24.29 8.84z m-78.36-80.93c10.19 0 19.25 8 37.16 24.64 9.98 9.27 25.05 23.28 32.11 25.57 3.93 1.28 11 3.01 14.11 0.23 1.7-1.52 7.15-8.45 5.84-33.91-0.91-17.72-4.69-36.37-6.95-47.51-0.95-4.69-1.58-7.79-1.83-9.96-1.09-9.5 3.94-37.25 9.44-58.6 8.76-33.99 19.22-57.39 31.1-69.55 9.63-9.85 19.15-11.28 25.47-10.73 1.47-0.25 8.27-4.31 17.02-20.43 6.81-12.54 12.85-28.99 16.16-43.99 3.28-14.87 2.84-23.3 2.15-26.56-5.28-1.69-25.04-6.06-91.7-8.19-43.08-1.37-83.67-1.04-89.33-0.53-3.55 0.59-9.57 0.27-77.97-4.63-97.76-7-279.73-20.04-358.16-18.04-44.05 1.12-77.73 11.01-97.41 28.61-13.76 12.31-17.4 25.74-17.4 31.12 0 1.04 0.29 3.49 0.57 5.86 1.41 11.81 4.02 33.8-4.96 61.22-10.56 32.24-34.34 63.42-70.68 92.67-47.07 37.91-55.71 61.65-56.67 72.44-0.57 6.38 1.43 9.79 2.1 10.74l3.71 2.78 0.15 3.41c1.24 0.89 6.32 3.69 21.94 4.39 13.3 0.6 28.65-0.55 40.99-1.46 7.48-0.55 13.94-1.03 18.69-1.03 3.55 0 19.79-1.89 36.98-3.89 37.64-4.38 94.51-11 144.31-13.47 81.27-4.02 103.32 4.69 111.43 19.01 2.27 4 21.39 15.75 81.82 21.91 46.2 4.71 83.54 2.71 89.77 0.37 20.62-8.49 116.62-32.49 130.04-32.49z m-680.07 0.27z m826.63-180.07z m-145.3-99.8c-0.08 0.02-0.17 0.03-0.25 0.05 0.09-0.02 0.18-0.03 0.25-0.05z m-4.08-28.67c-0.3 0.02-0.8 0.07-1.41 0.19 0.36-0.06 0.83-0.13 1.41-0.19z" fill="white"/>
  </svg>
</svg>