<svg xmlns="http://www.w3.org/2000/svg" width="1200" height="620" viewBox="0 0 1200 620" fill="none">
  <defs>
    <style>
      .bg{fill:#F5F8FC}.card{fill:#fff;stroke:#D9E2EC;stroke-width:1}.navy{stroke:#0B1F33}.blue{stroke:#1E5FA8}.cyan{stroke:#35B7D8}.gold{stroke:#E6B36A}.softblue{fill:#EAF4FB}.softcyan{fill:#E9F9FC}.softgold{fill:#FFF6E8}.ink{fill:#0B1F33}.muted{fill:#5A6B7C}.title{font:700 18px Arial, sans-serif}.label{font:600 13px Arial, sans-serif}.caption{font:400 12px Arial, sans-serif}.line{stroke-linecap:round;stroke-linejoin:round;stroke-width:4}.thin{stroke-linecap:round;stroke-linejoin:round;stroke-width:3}.fillgold{fill:#E6B36A}.fillblue{fill:#1E5FA8}.fillcyan{fill:#35B7D8}
    </style>
  </defs>
  <rect class="bg" width="1200" height="620"/>
  <text x="48" y="54" class="title ink">CIDE FISHERY SVG Icon Direction</text>
  <text x="48" y="78" class="caption muted">Marine B2B, hatchery supply, cold-chain and export operations. Brand blue, tech cyan and champagne gold accents.</text>
  <g transform="translate(48 116)"><rect class="card" width="210" height="210" rx="8"/><circle cx="105" cy="78" r="42" class="softblue"/><path d="M73 101h64" class="line navy"/><path d="M83 58h44c10 0 18 8 18 18v25H65V76c0-10 8-18 18-18Z" class="line blue"/><path d="M81 83h48M91 70h28" class="thin cyan"/><path d="M72 119c16 12 50 12 66 0" class="thin gold"/><circle cx="82" cy="101" r="5" class="fillgold"/><circle cx="128" cy="101" r="5" class="fillgold"/><text x="24" y="164" class="label ink">Processing Facility</text><text x="24" y="186" class="caption muted">equipment + batch workflow</text></g>
  <g transform="translate(278 116)"><rect class="card" width="210" height="210" rx="8"/><circle cx="105" cy="78" r="42" class="softcyan"/><rect x="68" y="55" width="56" height="70" rx="8" class="line blue"/><path d="M139 62v43" class="line navy"/><circle cx="139" cy="119" r="12" class="line navy"/><path d="M84 77h25M84 96h25" class="thin cyan"/><path d="M148 66c10 7 16 18 16 31M57 96c6-18 20-32 38-38" class="thin gold"/><text x="24" y="164" class="label ink">Cold Storage</text><text x="24" y="186" class="caption muted">temperature controlled chain</text></g>
  <g transform="translate(508 116)"><rect class="card" width="210" height="210" rx="8"/><circle cx="105" cy="78" r="42" class="softgold"/><path d="M65 77l40-22 40 22v47l-40 22-40-22V77Z" class="line navy"/><path d="M65 77l40 22 40-22M105 99v47" class="thin blue"/><path d="M82 65l40 23" class="thin cyan"/><path d="M130 116h20M140 106v20" class="thin gold"/><text x="24" y="164" class="label ink">Export Packaging</text><text x="24" y="186" class="caption muted">cans, bags and bulk formats</text></g>
  <g transform="translate(738 116)"><rect class="card" width="210" height="210" rx="8"/><circle cx="105" cy="78" r="42" class="softblue"/><path d="M77 48h50l18 18v70H77V48Z" class="line navy"/><path d="M127 48v20h18" class="thin blue"/><path d="M90 91l12 12 25-29" class="line gold"/><path d="M92 119h35" class="thin cyan"/><text x="24" y="164" class="label ink">Quality Control</text><text x="24" y="186" class="caption muted">inspection + traceable records</text></g>
  <g transform="translate(968 116)"><rect class="card" width="184" height="210" rx="8"/><circle cx="92" cy="78" r="42" class="softcyan"/><circle cx="92" cy="78" r="39" class="line blue"/><path d="M53 78h78M92 39c18 17 18 61 0 78M92 39c-18 17-18 61 0 78" class="thin cyan"/><path d="M62 105c20-7 45-7 60 4" class="thin gold"/><path d="M123 109l9 1-5-8" class="thin gold"/><text x="24" y="164" class="label ink">Global Supply</text><text x="24" y="186" class="caption muted">export routes and delivery</text></g>
  <g transform="translate(48 370)"><rect class="card" width="256" height="190" rx="8"/><circle cx="88" cy="76" r="42" class="softgold"/><path d="M53 83c26-24 63-28 85-5" class="line blue"/><path d="M62 91c19 8 41 9 61-1" class="thin navy"/><path d="M78 69c-13-12-18-23-15-34M96 67c-3-15 1-27 12-37" class="thin cyan"/><path d="M131 76l18-9-6 19" class="thin gold"/><text x="150" y="70" class="label ink">Shrimp Hatchery</text><text x="150" y="94" class="caption muted">larval feeding programs</text></g>
  <g transform="translate(334 370)"><rect class="card" width="256" height="190" rx="8"/><circle cx="88" cy="76" r="42" class="softcyan"/><path d="M47 78c24-24 62-24 89 0-27 24-65 24-89 0Z" class="line blue"/><circle cx="115" cy="73" r="4" class="fillgold"/><path d="M47 78l-18-15v30l18-15ZM74 61c8 10 8 25 0 35" class="thin navy"/><path d="M67 108c16 6 39 6 57 0" class="thin cyan"/><text x="150" y="70" class="label ink">Fish Fry</text><text x="150" y="94" class="caption muted">juvenile fish nutrition</text></g>
  <g transform="translate(620 370)"><rect class="card" width="256" height="190" rx="8"/><circle cx="88" cy="76" r="42" class="softblue"/><path d="M63 76c4-18 44-18 50 0 5 16-4 33-25 33S59 92 63 76Z" class="line blue"/><path d="M65 80l-25-17M111 80l25-17M68 100l-25 12M108 100l25 12" class="thin navy"/><path d="M76 67h24M79 91h18" class="thin cyan"/><circle cx="75" cy="77" r="3" class="fillgold"/><circle cx="101" cy="77" r="3" class="fillgold"/><text x="150" y="70" class="label ink">Crab Larvae</text><text x="150" y="94" class="caption muted">crustacean hatchery feed</text></g>
  <g transform="translate(906 370)"><rect class="card" width="246" height="190" rx="8"/><circle cx="86" cy="76" r="42" class="softgold"/><path d="M54 101c22-35 50-50 84-46" class="line blue"/><path d="M69 92c17-6 30-2 42 9" class="thin cyan"/><path d="M98 58c2 19 11 32 31 41" class="thin navy"/><circle cx="130" cy="56" r="8" class="fillgold"/><text x="146" y="70" class="label ink">Artemia Cysts</text><text x="146" y="94" class="caption muted">brine shrimp eggs supply</text></g>
</svg>
