<svg width="58" height="58" viewBox="0 0 58 58" fill="none" xmlns="http://www.w3.org/2000/svg">
<circle cx="29" cy="29" r="29" fill="#E9C187"/>
<path d="M26.75 13C26.2 13 25.8335 13.3625 25.8335 13.9065V15.7185C25.8335 16.2625 26.2 16.625 26.75 16.625C27.3 16.625 27.6665 16.2625 27.6665 15.7185V13.9065C27.6665 13.362 27.3 13 26.75 13ZM17.7665 16.8065C17.5835 16.8065 17.2165 16.8065 17.0335 16.9875C16.6665 17.35 16.6665 17.894 17.0335 18.256L18.3165 19.525C18.5 19.7065 18.6835 19.8875 19.05 19.8875C19.2335 19.8875 19.6 19.8875 19.7835 19.7065C20.15 19.3435 20.15 18.8 19.7835 18.4375L18.3165 16.9875C18.1335 16.806 17.95 16.806 17.7665 16.806V16.8065ZM15.75 25.687H13.9165C13.3665 25.687 13 26.0495 13 26.5935C13 27.1375 13.3665 27.5 13.9165 27.5H15.75C16.3 27.5 16.6665 27.1375 16.6665 26.5935C16.6665 26.05 16.3 25.6875 15.75 25.6875V25.687ZM39.5835 25.687H37.75C37.2 25.687 36.8335 26.0495 36.8335 26.5935C36.8335 27.137 37.2 27.4995 37.75 27.4995H39.5835C40.1335 27.4995 40.5 27.137 40.5 26.593C40.5 26.0495 40.1335 25.687 39.5835 25.687ZM35.7335 16.806C35.55 16.806 35.1835 16.806 35 16.987L33.7165 18.2555C33.35 18.6185 33.35 19.162 33.7165 19.5245C33.9 19.706 34.0835 19.706 34.45 19.706C34.6335 19.706 35 19.706 35.1835 19.5245L36.4665 18.2555C36.8335 17.8935 36.8335 17.3495 36.4665 16.987C36.2835 16.8055 36.1 16.8055 35.7335 16.8055V16.806Z" fill="white"/>
<path d="M39.7665 32.343V31.9785C39.7665 28.882 37.5295 25.773 34.5965 24.498C33.945 21.45 30.6 18.5 26.75 18.5C22.1665 18.5 18.5 22.143 18.5 26.6965C18.5 27.7895 18.6835 28.882 19.2335 29.975C17.95 30.8855 17.2165 32.1605 17.0335 33.618C14.65 34.3465 13 36.35 13 38.535C13 41.45 15.75 44 19.05 44H39.5835C41.05 44 42.5165 43.4535 43.6165 42.725C45.0835 41.632 46 39.993 46 38.1715C46 35.075 43.25 32.525 39.7665 32.343ZM26.7365 20.545C29.174 20.545 31.4375 22.102 32.3085 24.178C31.786 24.005 31.0895 24.005 30.567 24.005C26.9105 24.005 23.95 26.081 22.731 28.849H22.383C21.8605 28.849 21.5125 28.849 20.99 29.022C20.816 28.33 20.6415 27.465 20.6415 26.6C20.6415 23.313 23.4275 20.545 26.7365 20.545ZM25.6415 28.3375C26.2746 27.6031 27.0587 27.0141 27.9404 26.6107C28.8221 26.2073 29.7804 25.9989 30.75 26C34.478 26 37.5 29.022 37.5 32.75C37.5 33.327 37.4275 33.8875 37.2915 34.422H39.152C41.587 34.422 43.5 36.1445 43.5 38.211C43.326 39.4165 42.8045 40.278 41.761 41.139C40.891 41.828 39.848 42 38.8045 42H19.5C17.239 42 15.5 40.45 15.5 38.5555C15.5 37.178 16.5435 35.972 18.1085 35.4555L19.326 35.111V33.906C19.326 33.0445 19.848 32.356 20.5435 32.011C21.065 31.6665 21.587 31.4945 22.2825 31.322H23.8475L24.1955 30.289C24.543 29.5491 25.0344 28.8859 25.641 28.338L25.6415 28.3375Z" fill="white"/>
</svg>
