<svg width="80" height="80" viewBox="0 0 80 80" fill="none" xmlns="http://www.w3.org/2000/svg">
<circle cx="40" cy="40" r="40" fill="#5BC4DF"/>
<path d="M30.6502 42.8544L24.9774 48.4105C24.5179 48.8605 23.8947 49.1132 23.2449 49.1132C22.5951 49.1132 21.9719 48.8605 21.5124 48.4105C21.0529 47.9606 20.7947 47.3504 20.7947 46.7141C20.7947 46.0779 21.0529 45.4676 21.5124 45.0177L22.8073 43.7514C22.9218 43.6396 22.9998 43.497 23.0314 43.3418C23.063 43.1865 23.0468 43.0255 22.9849 42.8793C22.923 42.733 22.8181 42.6081 22.6836 42.5202C22.5491 42.4324 22.3909 42.3857 22.2292 42.386H18.449C17.7995 42.3859 17.1765 42.1331 16.7173 41.6834C16.258 41.2336 16 40.6237 16 39.9876C16 39.3516 16.258 38.7417 16.7173 38.2919C17.1765 37.8421 17.7995 37.5894 18.449 37.5893H22.3468C22.508 37.589 22.6655 37.5419 22.7995 37.454C22.9334 37.3662 23.0378 37.2414 23.0994 37.0956C23.1611 36.9497 23.1772 36.7892 23.1459 36.6344C23.1145 36.4796 23.037 36.3373 22.9232 36.2255L21.5124 34.844C21.0529 34.3941 20.7947 33.7839 20.7947 33.1476C20.7947 32.5114 21.0529 31.9011 21.5124 31.4512C21.9719 31.0013 22.5951 30.7485 23.2449 30.7485C23.8947 30.7485 24.5179 31.0013 24.9774 31.4512L30.7678 37.1224C31.0742 37.4217 31.4894 37.5897 31.9223 37.5893L36.2936 37.5941C36.508 37.5941 36.7204 37.5528 36.9185 37.4724C37.1166 37.3921 37.2966 37.2743 37.4482 37.1258C37.5999 36.9773 37.7202 36.8011 37.8022 36.6071C37.8843 36.4131 37.9265 36.2052 37.9265 35.9952V31.5727C37.9264 31.1487 37.7543 30.7421 37.4481 30.4423L31.741 24.8542C31.2948 24.4019 31.0479 23.7961 31.0535 23.1673C31.0591 22.5384 31.3167 21.9369 31.7708 21.4922C32.225 21.0476 32.8393 20.7953 33.4815 20.7899C34.1238 20.7844 34.7425 21.0261 35.2044 21.463L36.532 22.7629C36.6462 22.875 36.7918 22.9514 36.9504 22.9823C37.1089 23.0133 37.2733 22.9975 37.4227 22.9368C37.5721 22.8762 37.6997 22.7735 37.7894 22.6418C37.8791 22.5101 37.9268 22.3552 37.9265 22.1969V18.398C37.9266 17.7619 38.1847 17.152 38.6441 16.7023C39.1034 16.2526 39.7263 16 40.3759 16C41.0254 16 41.6484 16.2526 42.1077 16.7023C42.5671 17.152 42.8252 17.7619 42.8253 18.398V22.2481C42.8253 22.4061 42.8732 22.5605 42.9628 22.6919C43.0524 22.8233 43.1798 22.9257 43.3288 22.9863C43.4778 23.0468 43.6418 23.0628 43.8001 23.0321C43.9584 23.0015 44.1039 22.9256 44.2182 22.8141L45.5963 21.4646C46.0583 21.0277 46.677 20.786 47.3193 20.7915C47.9615 20.7969 48.5758 21.0492 49.0299 21.4938C49.4841 21.9385 49.7417 22.54 49.7473 23.1689C49.7528 23.7977 49.506 24.4035 49.0598 24.8558L43.3021 30.4935C42.9964 30.7935 42.8249 31.2001 42.8253 31.6239V35.9968C42.8253 36.2068 42.8675 36.4147 42.9496 36.6087C43.0316 36.8027 43.1519 36.9789 43.3036 37.1274C43.4552 37.2759 43.6352 37.3937 43.8333 37.474C44.0314 37.5544 44.2438 37.5957 44.4582 37.5957H48.9667C49.3997 37.5956 49.815 37.4271 50.1212 37.1272L55.9115 31.4576C56.3708 31.0077 56.9938 30.7549 57.6435 30.7547C58.2932 30.7546 58.9163 31.0071 59.3758 31.4568C59.8353 31.9065 60.0935 32.5165 60.0937 33.1527C60.0938 33.7888 59.8359 34.3989 59.3766 34.8488L57.9641 36.2303C57.8496 36.3421 57.7716 36.4847 57.74 36.6399C57.7084 36.7952 57.7246 36.9561 57.7865 37.1024C57.8484 37.2487 57.9533 37.3736 58.0878 37.4614C58.2223 37.5493 58.3805 37.596 58.5422 37.5957H62.551C63.2005 37.5958 63.8235 37.8485 64.2827 38.2983C64.742 38.7481 65 39.358 65 39.994C65 40.63 64.742 41.24 64.2827 41.6898C63.8235 42.1395 63.2005 42.3923 62.551 42.3924H58.6581C58.4969 42.3927 58.3394 42.4398 58.2054 42.5276C58.0715 42.6155 57.9671 42.7402 57.9055 42.8861C57.8438 43.032 57.8277 43.1924 57.859 43.3473C57.8904 43.5021 57.9679 43.6444 58.0817 43.7562L59.3766 45.0241C59.8359 45.474 60.0938 46.0842 60.0937 46.7203C60.0935 47.3564 59.8353 47.9664 59.3758 48.4161C58.9163 48.8658 58.2932 49.1184 57.6435 49.1183C56.9938 49.1181 56.3708 48.8653 55.9115 48.4153L50.2388 42.8608C50.087 42.7122 49.9067 42.5943 49.7083 42.5139C49.51 42.4335 49.2973 42.3922 49.0826 42.3924H44.4582C44.2438 42.3924 44.0314 42.4337 43.8333 42.5141C43.6352 42.5944 43.4552 42.7122 43.3036 42.8607C43.1519 43.0091 43.0316 43.1854 42.9496 43.3794C42.8675 43.5734 42.8253 43.7813 42.8253 43.9912V48.369C42.8249 48.7928 42.9964 49.1993 43.3021 49.4994L49.0598 55.137C49.506 55.5894 49.7528 56.1952 49.7473 56.824C49.7417 57.4529 49.4841 58.0544 49.0299 58.499C48.5758 58.9437 47.9615 59.1959 47.3193 59.2014C46.677 59.2069 46.0583 58.9651 45.5963 58.5283L44.2182 57.1788C44.1039 57.0673 43.9584 56.9914 43.8001 56.9607C43.6418 56.9301 43.4778 56.946 43.3288 57.0066C43.1798 57.0672 43.0524 57.1696 42.9628 57.301C42.8732 57.4324 42.8253 57.5868 42.8253 57.7448V61.6013C42.8253 61.9163 42.762 62.2282 42.6389 62.5192C42.5159 62.8102 42.3355 63.0747 42.108 63.2974C41.8806 63.5202 41.6105 63.6969 41.3133 63.8174C41.0161 63.938 40.6976 64 40.3759 64C40.0542 64 39.7357 63.938 39.4385 63.8174C39.1413 63.6969 38.8712 63.5202 38.6438 63.2974C38.4163 63.0747 38.2359 62.8102 38.1129 62.5192C37.9898 62.2282 37.9265 61.9163 37.9265 61.6013V57.7944C37.9268 57.6361 37.8791 57.4812 37.7894 57.3495C37.6997 57.2178 37.5721 57.1151 37.4227 57.0544C37.2733 56.9938 37.1089 56.978 36.9504 57.0089C36.7918 57.0399 36.6462 57.1163 36.532 57.2284L35.2044 58.5283C34.9785 58.7573 34.7082 58.94 34.4094 59.0657C34.1105 59.1914 33.7891 59.2576 33.4639 59.2604C33.1387 59.2631 32.8161 59.2024 32.5151 59.0818C32.2141 58.9613 31.9406 58.7832 31.7106 58.558C31.4807 58.3328 31.2988 58.065 31.1756 57.7703C31.0525 57.4755 30.9905 57.1597 30.9933 56.8413C30.9962 56.5228 31.0637 56.2081 31.1921 55.9155C31.3205 55.6229 31.5071 55.3583 31.741 55.137L37.4481 49.549C37.7543 49.2492 37.9264 48.8426 37.9265 48.4185L37.9249 43.9896C37.9249 43.5656 37.7528 43.1589 37.4466 42.8591C37.1404 42.5592 36.725 42.3908 36.292 42.3908L31.8063 42.3876C31.5916 42.3874 31.379 42.4287 31.1806 42.5091C30.9822 42.5895 30.802 42.7074 30.6502 42.856V42.8544Z" fill="white"/>
</svg>
