<svg width="80" height="80" viewBox="0 0 80 80" fill="none" xmlns="http://www.w3.org/2000/svg">
<path d="M0 40C0 50.6087 4.21427 60.7828 11.7157 68.2843C19.2172 75.7857 29.3913 80 40 80C50.6087 80 60.7828 75.7857 68.2843 68.2843C75.7857 60.7828 80 50.6087 80 40C80 29.3913 75.7857 19.2172 68.2843 11.7157C60.7828 4.21427 50.6087 0 40 0C29.3913 0 19.2172 4.21427 11.7157 11.7157C4.21427 19.2172 0 29.3913 0 40Z" fill="#E9C187"/>
<path d="M49.7081 52.6262C45.4523 54.456 40.3707 54.0774 35.7973 53.6357C31.732 53.194 27.0316 51.238 26.3964 46.6319C26.1423 44.8021 26.7775 43.0985 27.8573 41.5842C28.1114 41.2056 28.2385 41.0794 27.7938 40.827C26.4599 40.1329 25.1895 39.6281 24.1097 38.4924C23.7921 38.1769 23.4745 38.1138 23.0934 38.24C19.9809 39.502 16.932 38.24 14.9629 35.653C14.4547 34.959 14.0736 34.2649 13.756 33.4446C13.5654 33.0029 13.4384 32.5613 13.2478 32.1196C13.0573 31.8672 12.4221 30.7315 13.1208 30.7315C13.3113 30.7315 13.4384 30.7945 13.6289 30.8576C14.0101 30.8576 14.7088 31.2993 15.0899 31.4255C15.598 31.6148 16.1062 31.8672 16.6144 32.0565L19.4727 33.1922C19.5998 33.2553 19.7268 33.3184 19.8539 33.2553C19.4727 32.372 18.9646 31.6148 18.52 30.7315C18.0118 29.8481 17.3766 29.0278 17.1225 28.0183C16.9955 27.7028 16.8684 27.4504 17.3766 27.5766C18.3294 27.7028 19.2822 27.7028 20.1715 27.9552C23.0298 28.7123 24.4273 31.2993 24.7449 34.0756C24.8719 34.8328 24.8719 35.5899 24.8719 36.3471C24.8719 36.7257 24.9354 36.9781 25.1895 37.1674C26.3329 38.24 27.6668 38.9972 29.1913 39.502C29.5089 39.6281 29.8265 39.565 30.0805 39.3127C31.0968 38.5555 32.1767 37.9245 33.32 37.4197C33.7012 37.2936 33.8282 37.1043 33.5741 36.7257C33.1295 36.0947 33.3836 35.2113 32.4308 34.959C31.3509 34.7697 30.5252 34.1387 29.8265 33.3184C28.8101 32.1196 28.8101 30.3529 29.3818 28.9647C30.7157 25.3051 35.8608 24.4848 37.8299 28.1445C38.7192 29.785 38.4651 31.9303 37.2583 33.3815C37.0042 33.697 36.7501 33.9494 36.4325 34.1387C35.9243 34.5173 35.8608 34.7697 36.1149 35.4006C36.4325 36.1578 36.6231 36.284 37.2583 36.1578C38.7192 35.9685 40.1802 35.7161 41.7046 35.9685C41.9587 35.9685 42.1493 35.9685 42.2128 35.7161C42.2763 35.3375 42.5939 34.959 42.2128 34.5804C42.1493 34.5173 42.0222 34.4542 41.8952 34.3911C39.2274 32.8137 39.0368 29.2802 41.0059 27.0718C43.4197 24.3586 47.866 25.6206 48.9459 29.0278C49.6446 31.6148 48.3742 34.0125 45.8334 34.959C45.4523 35.0852 45.1347 35.3375 45.0712 35.7792C45.0712 36.0947 44.8806 36.4102 45.1982 36.5995C46.278 36.915 47.2944 37.2305 48.3107 37.7352C49.1364 38.1138 49.8987 38.6186 50.5974 39.1234C50.9785 39.3758 51.3596 39.4389 51.7407 39.3127C52.3124 39.1234 52.8841 38.9341 53.3922 38.6186C54.1545 38.1769 54.7897 37.6721 55.4884 37.1043C55.806 36.7888 55.8695 36.5364 55.8695 36.0947C55.7425 34.5804 55.806 33.1291 56.2506 31.6779C56.8858 29.8481 58.0292 28.5861 59.7442 27.829C60.9511 27.3873 62.158 27.1349 63.4284 27.2611C64.0635 27.8921 61.3957 31.6779 61.0781 32.2458C60.8876 32.5613 60.7605 32.8137 60.57 33.1922C60.824 32.6875 63.4284 32.0565 63.9365 31.8041C64.1271 31.741 65.5245 31.2993 66.4773 30.9207C66.9219 30.7945 67.3031 31.1731 67.176 31.6148C65.7786 35.7792 62.6661 40.0698 57.6481 38.1138C57.1399 37.9245 56.7588 37.9876 56.3777 38.4293C56.1236 38.7448 55.7425 38.9972 55.4249 39.2496C54.5991 39.8174 53.7734 40.2591 52.8841 40.6377C52.503 40.7639 52.4395 40.9532 52.6935 41.2056C53.2017 41.8996 53.6463 42.5937 53.9639 43.414C55.6154 47.6415 53.2017 51.1118 49.7081 52.6262Z" fill="white"/>
</svg>
