<svg width="58" height="58" viewBox="0 0 58 58" fill="none" xmlns="http://www.w3.org/2000/svg">
<circle cx="29" cy="29" r="29" fill="#3A4B5B"/>
<path d="M24.6172 42.3218H33.6658V45.3816H24.6172V42.3218Z" fill="white" fill-opacity="0.6"/>
<path d="M39.9082 23.2417C39.9082 17.3838 35.0145 12.6184 29.0014 12.6184C22.986 12.6184 18.0898 17.3838 18.0898 23.2417C18.0898 24.4361 18.2933 25.6111 18.6931 26.7279C20.5658 32.0529 28.6744 40.0525 28.999 40.3698L29.9947 39.3499C29.9947 39.3499 33.5318 35.5076 33.7692 35.2241L34.072 34.868C36.7927 31.6071 38.5564 28.8695 39.3074 26.7303L39.6393 25.7806H39.5933C39.8016 24.9521 39.9082 24.1042 39.9082 23.2417ZM29.0644 27.4838C26.5013 27.4838 24.4202 25.4003 24.4202 22.8371C24.4202 20.2764 26.5013 18.1929 29.0644 18.1929C31.6252 18.1929 33.7087 20.2764 33.7087 22.8371C33.7087 25.4003 31.6252 27.4838 29.0644 27.4838Z" fill="white"/>
</svg>
