<svg width="58" height="58" viewBox="0 0 58 58" fill="none" xmlns="http://www.w3.org/2000/svg">
<circle cx="29" cy="29" r="29" fill="#3A4B5B"/>
<path d="M40.2709 35.1595L40.0813 35.1228L40.0228 34.9402C39.4689 33.2347 38.5935 31.7695 37.4271 30.5883C36.4433 29.5897 35.2472 28.7876 33.8694 28.2118C32.6073 27.6827 31.2683 27.36 29.9037 27.2561L29.5971 27.2342V24.012C29.5971 23.9902 29.5971 23.9613 29.59 23.9395L29.5464 23.6329L29.8522 23.5821C30.9714 23.3858 31.9853 22.8005 32.715 21.9294C33.4447 21.0584 33.8433 19.9577 33.8406 18.8214C33.8406 16.1609 31.6825 13.9873 29.0213 13.9873C26.3678 13.9873 24.202 16.1531 24.202 18.8214C24.202 21.1542 25.8638 23.1515 28.1537 23.5743L28.4525 23.6329L28.4166 23.9395C28.4088 23.9683 28.4088 23.9972 28.4088 24.0269V27.2342L28.103 27.2561C26.7337 27.3603 25.3898 27.683 24.1224 28.2118C22.7516 28.7876 21.5556 29.5897 20.5647 30.5883C19.3976 31.7695 18.523 33.2417 17.969 34.9551L17.9105 35.1298L17.728 35.1743C16.1535 35.5168 15.002 36.9313 15.002 38.5494C15.002 39.4627 15.3642 40.3386 16.0092 40.9851C16.6543 41.6316 17.5294 41.9958 18.4426 41.9979C19.3559 41.9958 20.231 41.6316 20.876 40.9851C21.521 40.3386 21.8833 39.4627 21.8833 38.5494C21.8863 37.8133 21.6528 37.0956 21.217 36.5023C20.7813 35.9089 20.1664 35.4713 19.4631 35.2539L19.1354 35.1524L19.2595 34.831C20.2293 32.2579 21.9933 30.4135 24.5157 29.3267C25.6414 28.8512 26.8343 28.5538 28.0515 28.4451L28.4018 28.4155V35.1446L28.1537 35.2102C27.3362 35.4129 26.6213 35.9079 26.1436 36.6015C25.666 37.2952 25.4587 38.1398 25.5609 38.9758C25.6632 39.8118 26.0678 40.5815 26.6985 41.1396C27.3292 41.6978 28.1424 42.0059 28.9846 42.0057C29.898 42.0038 30.7733 41.6397 31.4185 40.9932C32.0637 40.3467 32.4261 39.4706 32.4261 38.5572C32.429 37.7876 32.1733 37.0393 31.7001 36.4323C31.2268 35.8254 30.5634 35.395 29.8163 35.2102L29.5682 35.1517V28.4233L29.9177 28.4521C30.5809 28.5106 31.915 28.6924 33.3818 29.3127C35.9401 30.3917 37.7259 32.2501 38.7027 34.8529L38.8198 35.1743L38.4991 35.2835C37.7181 35.5364 37.0529 36.0597 36.6232 36.7591C36.1935 37.4586 36.0274 38.2885 36.1548 39.0994C36.2822 39.9104 36.6948 40.6493 37.3183 41.1834C37.9418 41.7174 38.7353 42.0115 39.5563 42.0127C40.4695 42.0106 41.3446 41.6464 41.9897 40.9999C42.6347 40.3534 42.9969 39.4775 42.9969 38.5642C43.0414 36.9094 41.8742 35.4871 40.2709 35.1595Z" fill="white"/>
</svg>
