<svg width="58" height="58" viewBox="0 0 58 58" fill="none" xmlns="http://www.w3.org/2000/svg">
<circle cx="29" cy="29" r="29" fill="#497EB8"/>
<path d="M33.9696 13.1781L39.7668 18.9357C40.3157 19.481 40.6241 20.2205 40.6241 20.9916C40.6241 21.7626 40.3157 22.5021 39.7668 23.0474L36.7792 26.0135C37.2415 27.0228 37.3258 28.1629 37.0169 29.2284C39.7328 32.3433 39.5256 36.6121 36.4899 40.7355H43.0542C43.3648 40.7355 43.6627 40.858 43.8824 41.0762C44.102 41.2943 44.2254 41.5902 44.2254 41.8986V43.0618C44.2254 43.3703 44.102 43.6661 43.8824 43.8843C43.6627 44.1024 43.3648 44.225 43.0542 44.225H14.9465C14.6359 44.225 14.338 44.1024 14.1184 43.8843C13.8988 43.6661 13.7754 43.3703 13.7754 43.0618V41.8986C13.7754 41.5902 13.8988 41.2943 14.1184 41.0762C14.338 40.858 14.6359 40.7355 14.9465 40.7355H31.8252C35.327 37.41 36.1761 34.3033 34.7332 32.0386C34.0515 32.4042 33.2886 32.5949 32.5139 32.5934C31.8229 32.5934 31.1659 32.4445 30.5744 32.177L28.1724 34.5615C27.9005 34.8316 27.5777 35.0458 27.2224 35.192C26.8671 35.3382 26.4863 35.4134 26.1018 35.4134C25.7172 35.4134 25.3364 35.3382 24.9812 35.192C24.6259 35.0458 24.3031 34.8316 24.0312 34.5615L18.234 28.8039C17.6851 28.2586 17.3767 27.5191 17.3767 26.748C17.3767 25.9769 17.6851 25.2374 18.234 24.6921L29.8284 13.1769C30.1003 12.9068 30.4231 12.6926 30.7784 12.5464C31.1336 12.4002 31.5144 12.325 31.899 12.325C32.2836 12.325 32.6644 12.4002 33.0196 12.5464C33.3749 12.6926 33.6977 12.9068 33.9696 13.1769V13.1781ZM18.1883 29.8554L22.9736 34.608C23.1932 34.8261 23.3165 35.1219 23.3165 35.4304C23.3165 35.7388 23.1932 36.0346 22.9736 36.2527L22.1445 37.0762C21.9248 37.2943 21.627 37.4168 21.3165 37.4168C21.0059 37.4168 20.7081 37.2943 20.4884 37.0762L15.7031 32.3236C15.4836 32.1054 15.3602 31.8097 15.3602 31.5012C15.3602 31.1928 15.4836 30.897 15.7031 30.6789L16.5323 29.8554C16.7519 29.6373 17.0497 29.5148 17.3603 29.5148C17.6708 29.5148 17.9687 29.6373 18.1883 29.8554ZM31.899 16.0557L21.1326 26.7486L26.1018 31.6838L28.1536 29.646C27.8187 28.8026 27.7391 27.8803 27.9248 26.9926C28.1104 26.1049 28.5532 25.2904 29.1987 24.6492C29.8441 24.0081 30.6641 23.5682 31.5579 23.3836C32.4517 23.1991 33.3803 23.2779 34.2296 23.6104L36.8682 20.991L31.899 16.0557ZM32.5139 26.7777C32.2032 26.7777 31.9054 26.9002 31.6857 27.1183C31.4661 27.3365 31.3427 27.6323 31.3427 27.9408C31.3427 28.2493 31.4661 28.5452 31.6857 28.7633C31.9054 28.9814 32.2032 29.104 32.5139 29.104C32.8245 29.104 33.1224 28.9814 33.342 28.7633C33.5616 28.5452 33.685 28.2493 33.685 27.9408C33.685 27.6323 33.5616 27.3365 33.342 27.1183C33.1224 26.9002 32.8245 26.7777 32.5139 26.7777Z" fill="white"/>
</svg>
