<svg width="58" height="58" viewBox="0 0 58 58" fill="none" xmlns="http://www.w3.org/2000/svg">
<circle cx="29" cy="29" r="29" fill="#5BC4DF"/>
<path d="M45.1967 15.4951V17.9991L28.6812 17.9983V36.3609H36.4494C36.7697 35.4718 37.3566 34.7031 38.1299 34.1598C38.9032 33.6165 39.8253 33.325 40.7703 33.3251C41.7154 33.3252 42.6374 33.6169 43.4106 34.1603C44.1838 34.7038 44.7705 35.4725 45.0907 36.3617H45.1967V36.6973C45.4571 37.8701 45.2473 39.0984 44.6123 40.1183C43.9773 41.1383 42.9678 41.8687 41.8004 42.1527C40.633 42.4367 39.4008 42.2518 38.3682 41.6376C37.3357 41.0234 36.585 40.0288 36.2775 38.8674L25.2298 38.8665C25.0113 39.8959 24.4458 40.819 23.6281 41.4813C22.8104 42.1436 21.79 42.505 20.7377 42.505C19.6854 42.505 18.665 42.1436 17.8473 41.4813C17.0296 40.819 16.4641 39.8959 16.2455 38.8665L12.6356 38.8657L12.6348 28.2379L19.9105 20.963H26.1772V15.4951H45.1967ZM20.7377 35.83C20.4637 35.83 20.1923 35.884 19.9392 35.9889C19.686 36.0937 19.456 36.2474 19.2622 36.4412C19.0684 36.635 18.9147 36.865 18.8099 37.1182C18.705 37.3713 18.651 37.6427 18.651 37.9167C18.651 38.1907 18.705 38.4621 18.8099 38.7152C18.9147 38.9684 19.0684 39.1984 19.2622 39.3922C19.456 39.586 19.686 39.7397 19.9392 39.8445C20.1923 39.9494 20.4637 40.0034 20.7377 40.0034C21.2911 40.0034 21.8219 39.7835 22.2132 39.3922C22.6045 39.0009 22.8243 38.4701 22.8243 37.9167C22.8243 37.3633 22.6045 36.8325 22.2132 36.4412C21.8219 36.0499 21.2911 35.83 20.7377 35.83ZM40.7696 35.83C40.4956 35.83 40.2243 35.884 39.9711 35.9889C39.7179 36.0937 39.4879 36.2474 39.2941 36.4412C39.1004 36.635 38.9467 36.865 38.8418 37.1182C38.7369 37.3713 38.683 37.6427 38.683 37.9167C38.683 38.1907 38.7369 38.4621 38.8418 38.7152C38.9467 38.9684 39.1004 39.1984 39.2941 39.3922C39.4879 39.586 39.7179 39.7397 39.9711 39.8445C40.2243 39.9494 40.4956 40.0034 40.7696 40.0034C41.323 40.0034 41.8538 39.7835 42.2451 39.3922C42.6364 39.0009 42.8563 38.4701 42.8563 37.9167C42.8563 37.3633 42.6364 36.8325 42.2451 36.4412C41.8538 36.0499 41.323 35.83 40.7696 35.83ZM20.9472 23.4662L15.1379 29.2754L15.1388 36.3609H16.4175C16.7379 35.472 17.3247 34.7036 18.0978 34.1604C18.871 33.6173 19.7928 33.3258 20.7377 33.3258C21.6825 33.3258 22.6044 33.6173 23.3776 34.1604C24.1507 34.7036 24.7375 35.472 25.0579 36.3609H26.1772V23.467L20.9472 23.4662ZM45.3544 21.2234L45.3661 23.7274L32.6826 23.7883L32.67 21.2843L45.3544 21.2234Z" fill="white"/>
</svg>
