<svg width="80" height="80" viewBox="0 0 80 80" fill="none" xmlns="http://www.w3.org/2000/svg">
<circle cx="40" cy="40" r="40" fill="#E9C187"/>
<path d="M40 16C48.8352 16 56 18.3867 56 21.3333C56 24.28 48.8352 26.6667 40 26.6667C31.1648 26.6667 24 24.28 24 21.3333C24 18.3867 31.1648 16 40 16ZM40 18.6667C36.0832 18.6667 32.4512 19.1787 29.8752 20.0373C29.2416 20.2507 28.7328 20.4587 28.3392 20.6427L27.8272 20.904L27.472 21.1173L27.2672 21.264C27.2224 21.3013 27.2 21.3253 27.2 21.3333C27.2 21.3413 27.2224 21.3653 27.264 21.4027L27.472 21.552L27.824 21.7627L28.336 22.024C28.7328 22.2107 29.2416 22.4187 29.872 22.6293C32.4544 23.488 36.0864 24 40 24C43.9136 24 47.5488 23.488 50.1248 22.6293C50.7584 22.416 51.2672 22.208 51.6608 22.024L52.1728 21.7627L52.528 21.5493L52.7328 21.4027L52.8 21.3333L52.736 21.264L52.528 21.1147L52.176 20.904L51.664 20.6427C51.1686 20.4129 50.6555 20.2107 50.128 20.0373C47.5456 19.1787 43.9136 18.6667 40 18.6667ZM40 53.3333C48.8352 53.3333 56 55.72 56 58.6667C56 61.6133 48.8352 64 40 64C31.1648 64 24 61.6133 24 58.6667C24 55.72 31.1648 53.3333 40 53.3333ZM40 56C36.0832 56 32.4512 56.512 29.8752 57.3707C29.2416 57.584 28.7328 57.792 28.3392 57.976L27.8272 58.2373L27.472 58.4507L27.2672 58.5973C27.2224 58.6347 27.2 58.6587 27.2 58.6667C27.2 58.6747 27.2224 58.6987 27.264 58.736L27.472 58.8853L27.824 59.096L28.336 59.3573C28.7328 59.544 29.2416 59.752 29.872 59.9627C32.4512 60.8213 36.0832 61.3333 40 61.3333C43.9168 61.3333 47.5488 60.8213 50.1248 59.9627C50.7584 59.7493 51.2672 59.5413 51.6608 59.3573L52.1728 59.096L52.528 58.8827L52.7328 58.736L52.8 58.6667L52.736 58.5973L52.528 58.448L52.176 58.2373L51.664 57.976C51.1686 57.7462 50.6555 57.544 50.128 57.3707C47.5456 56.512 43.9136 56 40 56Z" fill="white"/>
<path d="M24 20.5714V58.2857H27.2V20.5714H24ZM52.8 20.5714V58.2857H56V20.5714H52.8Z" fill="white"/>
</svg>
