<svg width="58" height="58" viewBox="0 0 58 58" fill="none" xmlns="http://www.w3.org/2000/svg">
<circle cx="29" cy="29" r="29" fill="#497EB8"/>
<path d="M23.4755 19.2442C18.0267 24.7387 18.5048 31.0189 18.5048 34.2682C20.8923 34.1499 23.6745 31.7972 28.2597 31.8515C30.4522 31.8778 33.2103 33.2583 34.8687 35.2278L35.1078 35.4686L36.0868 34.4632C38.0342 32.5044 39.4775 30.1026 40.2929 27.4636C37.4927 26.8933 34.9671 25.3943 33.1251 23.2095C31.2874 20.9571 30.2454 18.1606 30.1611 15.2548C27.6469 16.0343 25.3544 17.4012 23.4732 19.2424L23.4755 19.2442ZM37.1408 19.1721C36.8177 19.1722 36.5079 19.0439 36.2794 18.8155C36.0509 18.5872 35.9225 18.2774 35.9224 17.9543C35.9223 17.6313 36.0506 17.3214 36.279 17.0929C36.5074 16.8644 36.8171 16.736 37.1402 16.736C37.4633 16.736 37.7731 16.8643 38.0015 17.0927C38.2299 17.3212 38.3583 17.631 38.3583 17.954C38.3583 18.2771 38.2299 18.5869 38.0015 18.8153C37.7731 19.0438 37.4633 19.1721 37.1402 19.1721M41.0575 14.2518C40.0033 14.0493 38.9294 13.9685 37.8567 14.011C35.9444 14.0545 34.0367 14.2232 32.1461 14.5143C32.4161 17.0482 33.3567 19.4644 34.871 21.5139C36.5319 23.2768 38.6894 24.4931 41.0575 25.0017C41.7691 21.8677 42.0986 18.6591 42.0388 15.4458C41.9852 15.1818 41.8677 14.9349 41.6966 14.7268C41.5256 14.5186 41.3061 14.3555 41.0575 14.2518Z" fill="white"/>
<path d="M15.9046 39.6221C15.6239 39.5619 15.3781 39.394 15.22 39.1543C15.062 38.9147 15.0043 38.6226 15.0595 38.3409C15.1147 38.0591 15.2782 37.8103 15.515 37.648C15.7518 37.4857 16.0429 37.4229 16.3255 37.4731C17.4035 37.6835 19.504 37.0567 22.4834 35.519C26.0696 33.6679 28.8368 34.1036 31.8265 36.06C32.1136 36.2487 32.9966 36.8577 33.1475 36.9578C34.1683 37.6269 36 37.8305 38.6289 37.4799C38.9167 37.4412 39.2082 37.5185 39.4391 37.6947C39.67 37.8709 39.8214 38.1316 39.8601 38.4195C39.8988 38.7074 39.8215 38.9988 39.6453 39.2297C39.4691 39.4606 39.2084 39.612 38.9205 39.6507C35.8159 40.067 33.4958 39.8086 31.9449 38.7872C31.7653 38.6694 30.8847 38.0626 30.6262 37.8939C28.2404 36.3316 26.2823 36.0228 23.4893 37.4645C20.0936 39.2167 17.6162 39.9578 15.9046 39.6221Z" fill="white"/>
<path d="M15.9038 44.4024C15.7606 44.377 15.6239 44.3233 15.5016 44.2445C15.3794 44.1656 15.2741 44.0632 15.1918 43.9433C15.1096 43.8233 15.0521 43.6881 15.0227 43.5457C14.9932 43.4032 14.9925 43.2564 15.0204 43.1136C15.0484 42.9709 15.1045 42.8351 15.1855 42.7143C15.2665 42.5935 15.3707 42.49 15.4921 42.4099C15.6135 42.3298 15.7497 42.2747 15.8926 42.2479C16.0356 42.221 16.1825 42.2228 16.3247 42.2533C17.4027 42.4638 19.5031 41.837 22.4825 40.297C26.0687 38.4481 28.836 38.8844 31.8257 40.8402C32.1128 41.0289 32.9957 41.6374 33.1467 41.7381C34.1675 42.4066 35.9992 42.6102 38.628 42.2596C38.916 42.2209 39.2075 42.2982 39.4385 42.4745C39.6694 42.6507 39.8209 42.9115 39.8596 43.1995C39.8982 43.4874 39.8209 43.7789 39.6447 44.0099C39.4684 44.2408 39.2076 44.3923 38.9197 44.431C35.815 44.8467 33.495 44.5865 31.9441 43.5675C31.7645 43.4491 30.8838 42.8423 30.6253 42.6713C28.2395 41.1119 26.2814 40.8031 23.4885 42.2442C20.0927 43.9969 17.6154 44.7375 15.9038 44.4024Z" fill="white"/>
</svg>
