<svg width="58" height="58" viewBox="0 0 58 58" fill="none" xmlns="http://www.w3.org/2000/svg">
<circle cx="29" cy="29" r="29" fill="#E9C187"/>
<path d="M19.6 14.5H34.1L39.4 19.8V40.6C39.4 42.2 38.1 43.5 36.5 43.5H19.6C18 43.5 16.7 42.2 16.7 40.6V17.4C16.7 15.8 18 14.5 19.6 14.5ZM32.75 16.95V21.15H36.95L32.75 16.95Z" fill="white"/>
<path d="M22.35 25.05H32.65C33.35 25.05 33.9 25.6 33.9 26.3C33.9 27 33.35 27.55 32.65 27.55H22.35C21.65 27.55 21.1 27 21.1 26.3C21.1 25.6 21.65 25.05 22.35 25.05Z" fill="#E9C187"/>
<path d="M22.35 30.55H29.15C29.85 30.55 30.4 31.1 30.4 31.8C30.4 32.5 29.85 33.05 29.15 33.05H22.35C21.65 33.05 21.1 32.5 21.1 31.8C21.1 31.1 21.65 30.55 22.35 30.55Z" fill="#E9C187"/>
<path d="M40.1 33.55C42.78 36.23 42.78 40.58 40.1 43.26C37.42 45.94 33.07 45.94 30.39 43.26C27.71 40.58 27.71 36.23 30.39 33.55C33.07 30.87 37.42 30.87 40.1 33.55Z" fill="#E9C187"/>
<path d="M32.7 38.34L34.72 40.36L38.92 36.16" stroke="white" stroke-width="2.8" stroke-linecap="round" stroke-linejoin="round"/>
<path d="M31.76 32.53C34.78 30.36 39.02 30.62 41.75 33.35C44.76 36.36 44.76 41.24 41.75 44.25C38.74 47.26 33.86 47.26 30.85 44.25C28.12 41.52 27.86 37.28 30.03 34.26" stroke="white" stroke-width="2.2" stroke-linecap="round"/>
</svg>
