<svg width="80" height="80" viewBox="0 0 80 80" fill="none" xmlns="http://www.w3.org/2000/svg">
<path d="M35.0566 27.1442C35.057 27.342 35.0962 27.5379 35.1722 27.7206C35.2482 27.9032 35.3595 28.0692 35.4996 28.2088C35.6397 28.3485 35.806 28.4592 35.9889 28.5347C36.1718 28.6101 36.3678 28.6488 36.5657 28.6485C36.7635 28.6482 36.9594 28.6089 37.1421 28.5329C37.3247 28.4569 37.4907 28.3456 37.6304 28.2055C37.77 28.0654 37.8808 27.8991 37.9562 27.7162C38.0316 27.5333 38.0703 27.3373 38.07 27.1394C38.0697 26.9416 38.0304 26.7457 37.9544 26.563C37.8784 26.3804 37.7671 26.2144 37.627 26.0748C37.4869 25.9351 37.3206 25.8243 37.1377 25.7489C36.9548 25.6735 36.7588 25.6348 36.5609 25.6351C36.3631 25.6354 36.1672 25.6747 35.9845 25.7507C35.8019 25.8267 35.6359 25.938 35.4963 26.0781C35.3566 26.2182 35.2459 26.3845 35.1704 26.5674C35.095 26.7503 35.0563 26.9463 35.0566 27.1442Z" fill="#5BC4DF"/>
<path d="M43.4797 51.5066C43.1865 51.5172 42.9028 51.6131 42.6634 51.7826C42.424 51.9522 42.2392 52.1879 42.1319 52.4609C42.0245 52.7339 41.9992 53.0323 42.059 53.3195C42.1188 53.6067 42.2612 53.8702 42.4686 54.0777C42.6761 54.2851 42.9396 54.4275 43.2268 54.4873C43.514 54.5471 43.8124 54.5218 44.0854 54.4144C44.3584 54.3071 44.5941 54.1224 44.7637 53.8829C44.9332 53.6435 45.0291 53.3598 45.0397 53.0666V52.9466C45.0224 52.5493 44.8486 52.1749 44.5564 51.9052C44.2642 51.6354 43.8771 51.4922 43.4797 51.5066Z" fill="#5BC4DF"/>
<path d="M40 0C32.0888 0 24.3552 2.34596 17.7772 6.74121C11.1992 11.1365 6.07234 17.3836 3.04484 24.6927C0.0173312 32.0017 -0.774802 40.0444 0.768607 47.8036C2.31202 55.5628 6.12165 62.6902 11.7157 68.2843C17.3098 73.8784 24.4372 77.688 32.1964 79.2314C39.9556 80.7748 47.9983 79.9827 55.3073 76.9552C62.6164 73.9277 68.8635 68.8008 73.2588 62.2228C77.654 55.6448 80 47.9112 80 40C80 29.3913 75.7857 19.2172 68.2843 11.7157C60.7828 4.21427 50.6087 0 40 0ZM35.16 37.6933C35.1195 37.9272 35.0661 38.1587 35 38.3867C34.2933 41.1333 32.8 43.0933 31.6267 42.8133C30.72 42.5733 30.2933 41.1067 30.44 39.1867C29.6286 39.6675 28.9031 40.2804 28.2933 41C26.7395 42.8593 25.9697 45.25 26.1467 47.6667C26.3566 49.209 26.8349 50.7027 27.56 52.08C28.4341 51.8757 29.3391 51.8395 30.2267 51.9733C32.48 52.3067 34.2267 53.48 34.0133 54.64C33.8 55.8 31.88 56.4267 29.6533 56.0933C29.1987 56.0277 28.752 55.916 28.32 55.76C28.2418 56.212 28.1304 56.6577 27.9867 57.0933C27.24 59.24 25.76 60.6667 24.6667 60.28C23.5733 59.8933 23.3333 57.84 24.0933 55.72C24.3878 54.8576 24.84 54.0573 25.4267 53.36C23.355 52.16 21.5443 50.5575 20.1013 48.647C18.6583 46.7366 17.6121 44.5567 17.0244 42.2357C16.4368 39.9148 16.3194 37.4997 16.6793 35.1327C17.0392 32.7658 17.869 30.4947 19.12 28.4533C17.56 28.4533 16.4533 27.9867 16.24 27.2133C15.9333 26.0533 17.9467 24.5467 20.6933 23.8933C21.5655 23.6779 22.4617 23.5749 23.36 23.5867C26.5451 21.079 30.4796 19.7128 34.5333 19.7067C38.6533 19.7067 42.5333 23.5067 42.9867 27.9333C43.1746 30.1574 42.5379 32.373 41.1979 34.158C39.8579 35.943 37.9082 37.1729 35.72 37.6133L35.16 37.6933ZM59.28 56.1467C58.4078 56.362 57.5117 56.4651 56.6133 56.4533C53.4282 58.9609 49.4938 60.3272 45.44 60.3333C41.32 60.3333 37.44 56.5333 36.9867 52.1067C36.7967 49.8852 37.4331 47.6717 38.774 45.8904C40.1149 44.1091 42.066 42.8852 44.2533 42.4533L44.88 42.3467C44.88 42.12 44.96 41.88 45.04 41.64C45.7067 38.8933 47.24 36.9333 48.4133 37.2133C49.32 37.44 49.7467 38.92 49.6 40.84C51.0492 39.9849 52.2243 38.734 52.9872 37.2343C53.7501 35.7345 54.0691 34.0481 53.9067 32.3733C53.6604 30.8348 53.1603 29.3479 52.4267 27.9733C51.5784 28.1679 50.7014 28.204 49.84 28.08C47.5867 27.7467 45.84 26.5733 46.0533 25.4133C46.2667 24.2533 48.1733 23.6533 50.4133 23.96C50.8678 24.0261 51.3146 24.1377 51.7467 24.2933C51.8216 23.8406 51.9331 23.3947 52.08 22.96C52.7733 20.84 54.2267 19.5067 55.3467 19.8267C56.4667 20.1467 56.68 22.2667 55.92 24.3867C55.6317 25.2519 55.179 26.0532 54.5867 26.7467C56.6562 27.9402 58.4655 29.5364 59.9077 31.4409C61.35 33.3455 62.396 35.5197 62.9839 37.8353C63.5718 40.1508 63.6897 42.5607 63.3306 44.9226C62.9716 47.2845 62.1428 49.5504 60.8933 51.5867C62.44 51.5867 63.56 52.0533 63.8 52.8267C64.0533 54.0267 62.0267 55.5067 59.28 56.1467Z" fill="#5BC4DF"/>
</svg>
