<svg width="58" height="58" viewBox="0 0 58 58" fill="none" xmlns="http://www.w3.org/2000/svg">
<circle cx="29" cy="29" r="29" fill="#5BC4DF"/>
<path d="M16.03 31.16C19.78 24.1 28.54 20.58 36.08 23.43C39.05 24.55 41.47 26.7 43 29.43C39.28 36.3 30.77 39.72 23.34 37.1C20.22 35.99 17.67 33.85 16.03 31.16ZM22.95 31.12C24.7 33.02 27.26 34.04 29.93 33.72C32.47 33.42 34.72 31.94 36.05 29.82C34.3 27.92 31.74 26.9 29.07 27.22C26.53 27.52 24.28 29 22.95 31.12Z" fill="white"/>
<path d="M36.05 23.42C39.42 20.92 41.9 17.92 43.36 14.54C44.12 17.92 42.78 21.75 39.63 25.02L36.05 23.42Z" fill="white" fill-opacity="0.62"/>
<path d="M20.93 36.38C17.75 37.92 15.33 40.02 13.8 42.62C13.62 39.72 15.42 36.82 18.78 34.76L20.93 36.38Z" fill="white" fill-opacity="0.62"/>
<path d="M25.86 24.54L22.36 18.48M30.08 23.68L28.74 16.85M34.08 24.08L36.02 17.5" stroke="white" stroke-width="2.4" stroke-linecap="round"/>
</svg>
