<svg width="58" height="58" viewBox="0 0 58 58" fill="none" xmlns="http://www.w3.org/2000/svg">
<circle cx="29" cy="29" r="29" fill="#497EB8"/>
<path d="M18.96 18.46C21.7 15.72 26.15 15.72 28.89 18.46L39.54 29.11C42.28 31.85 42.28 36.3 39.54 39.04C36.8 41.78 32.35 41.78 29.61 39.04L18.96 28.39C16.22 25.65 16.22 21.2 18.96 18.46ZM21.2 20.7C19.7 22.2 19.7 24.65 21.2 26.15L26.4 31.35L31.35 26.4L26.15 21.2C24.65 19.7 22.2 19.7 21.2 20.7Z" fill="white"/>
<path d="M29.05 34L31.85 36.8C33.35 38.3 35.8 38.3 37.3 36.8C38.8 35.3 38.8 32.85 37.3 31.35L34.5 28.55L29.05 34Z" fill="white" fill-opacity="0.6"/>
<path d="M40.05 15.95L41.06 18.23L43.34 19.24L41.06 20.25L40.05 22.53L39.04 20.25L36.76 19.24L39.04 18.23L40.05 15.95Z" fill="white"/>
<path d="M17.87 34.08L18.64 35.83L20.39 36.6L18.64 37.37L17.87 39.12L17.1 37.37L15.35 36.6L17.1 35.83L17.87 34.08Z" fill="white" fill-opacity="0.7"/>
</svg>
