<svg width="58" height="58" viewBox="0 0 58 58" fill="none" xmlns="http://www.w3.org/2000/svg">
  <circle cx="29" cy="29" r="29" fill="#3A4B5B"/>
  <path d="M29 42C36.1797 42 42 36.1797 42 29C42 21.8203 36.1797 16 29 16C21.8203 16 16 21.8203 16 29C16 36.1797 21.8203 42 29 42Z" stroke="white" stroke-width="3"/>
  <path d="M16.5 29H41.5" stroke="white" stroke-width="3" stroke-linecap="round"/>
  <path d="M29 16C32.2 19.3 34 23.6 34 29C34 34.4 32.2 38.7 29 42" stroke="white" stroke-width="3" stroke-linecap="round"/>
  <path d="M29 16C25.8 19.3 24 23.6 24 29C24 34.4 25.8 38.7 29 42" stroke="white" stroke-width="3" stroke-linecap="round"/>
  <path d="M20.5 20.5C22.9 22.1 25.8 23 29 23C32.2 23 35.1 22.1 37.5 20.5" stroke="white" stroke-width="3" stroke-linecap="round"/>
  <path d="M20.5 37.5C22.9 35.9 25.8 35 29 35C32.2 35 35.1 35.9 37.5 37.5" stroke="white" stroke-width="3" stroke-linecap="round"/>
</svg>