<svg width="80" height="80" viewBox="0 0 80 80" fill="none" xmlns="http://www.w3.org/2000/svg">
<circle cx="40" cy="40" r="40" fill="#497EB8"/>
<path d="M40.0827 17C52.8315 17 63.1654 27.3339 63.1654 40.0827C63.1654 52.8315 52.8315 63.1654 40.0827 63.1654C27.3339 63.1654 17 52.8315 17 40.0827C17 27.3339 27.3339 17 40.0827 17ZM49.6579 23.0548L49.6709 23.0275C49.5016 23.4063 49.3324 23.7733 49.1595 24.1284L48.8139 24.8233C46.8998 28.552 44.7655 30.7727 41.8654 30.7727C41.1149 30.7727 40.6272 30.807 40.2922 30.8804L40.0803 30.9301C40.0756 30.9301 40.0732 30.9289 40.0732 30.9266L40.0661 30.9408C40.0404 31.0425 40.0344 31.1481 40.0484 31.2521L40.0721 31.4628L40.1182 31.7256L40.1869 32.0416L40.2319 32.2192L40.3431 32.6146C40.3632 32.6856 40.3857 32.7578 40.4094 32.8335L40.568 33.313C40.6272 33.4822 40.69 33.661 40.761 33.8492C41.8737 36.8203 41.1492 39.7371 39.1464 41.3398C36.9648 43.0858 34.0066 42.5591 32.9164 39.7903L32.5814 38.9499L32.295 38.2538L32.1257 37.862L31.9351 37.4477L31.7623 37.1115L31.6972 36.9967L31.5717 36.7967C31.3468 36.4688 31.1456 36.3327 30.897 36.2794L30.7206 36.2545L30.5241 36.2486L29.5736 36.2604L28.9734 36.2569C27.6476 36.232 26.8131 36.0509 26.0188 35.4449C24.6812 34.4233 24.5332 32.8028 25.2979 30.8354L25.4045 30.5774C25.9644 29.2528 25.8945 28.3212 25.1429 27.5032C22.1712 31.0205 20.5441 35.4781 20.5512 40.0827C20.5512 50.87 29.2966 59.6142 40.0827 59.6142C41.8263 59.6142 43.5155 59.3858 45.123 58.9573C45.3834 57.4113 44.788 56.1814 43.2515 55.0415L43.029 54.8817C38.3604 51.6323 38.152 46.4808 41.7754 44.2755C44.588 42.5626 47.6349 42.5283 49.9005 44.7525L50.1101 44.9679C50.5599 45.4474 50.8321 45.6379 51.0417 45.6983L51.1506 45.722L51.2867 45.7291L51.411 45.7244L51.6868 45.6948L52.3106 45.6107C52.7379 45.5503 53.0623 45.5125 53.4257 45.4876C55.5386 45.3396 56.9177 46.1623 57.912 48.0681C59.038 45.5567 59.6181 42.835 59.6142 40.0827C59.6142 32.7744 55.6014 26.4047 49.6579 23.0548ZM43.6209 47.3094C42.3519 48.0823 42.3898 49.9917 44.8235 51.7992L45.0579 51.9673C47.2679 53.5062 48.499 55.4309 48.7038 57.6137C51.3909 56.2887 53.7384 54.3652 55.5659 51.991L55.5067 51.7472L55.3765 51.2618L55.3137 51.0428L55.1906 50.6439L55.1291 50.464L55.0083 50.1432C54.6236 49.2057 54.2389 48.9903 53.6731 49.0305L53.3535 49.0577L53.0055 49.0992L52.1236 49.2199L51.6974 49.2673L51.3542 49.2886C51.1961 49.2932 51.0379 49.2869 50.8807 49.2696L50.5646 49.2246L50.4948 49.2128C49.4271 49.0246 48.5014 48.4446 47.5177 47.3946C46.5352 46.3446 45.2189 46.3363 43.6221 47.3082L43.6209 47.3094ZM40.0839 20.5512C35.3679 20.5512 31.0414 22.2226 27.6666 25.0067C29.3794 26.8025 29.7736 29.119 28.7935 31.6664L28.6751 31.9611C28.5857 32.1678 28.5102 32.3801 28.449 32.5968L28.4301 32.6678L28.7201 32.6915L28.9651 32.7033L29.1036 32.7057H29.8127L30.5253 32.6974C32.6394 32.6974 33.7273 33.3283 34.8376 35.375L35.0767 35.8355L35.3182 36.3409L35.5656 36.8926L35.8201 37.4939L36.2226 38.4894C36.3764 38.8824 36.5055 38.9061 36.9281 38.5675C37.7034 37.9473 38.023 36.6617 37.4371 35.0957C36.3374 32.1624 36.1752 30.2104 37.2347 28.7911C38.1035 27.6275 39.2565 27.283 41.2439 27.2298L41.8654 27.2215C43.1687 27.2215 44.8673 25.0198 46.4168 21.6023C44.3782 20.9039 42.2377 20.5487 40.0827 20.5512H40.0839Z" fill="white"/>
</svg>
