<svg width="58" height="58" viewBox="0 0 58 58" fill="none" xmlns="http://www.w3.org/2000/svg">
<circle cx="29" cy="29" r="29" fill="#5BC4DF"/>
<path d="M37.9562 33.9341L32.7753 18.4785V12.5932H33.6301C33.8276 12.5932 34.0169 12.5093 34.1566 12.3599C34.2962 12.2105 34.3747 12.0079 34.3747 11.7966C34.3747 11.5853 34.2962 11.3827 34.1566 11.2333C34.0169 11.0839 33.8276 11 33.6301 11H24.2765C24.079 11 23.8896 11.0839 23.7499 11.2333C23.6103 11.3827 23.5319 11.5853 23.5319 11.7966C23.5319 12.0079 23.6103 12.2105 23.7499 12.3599C23.8896 12.5093 24.079 12.5932 24.2765 12.5932H25.0508V18.5327L20.0412 33.9421C20.0023 34.0621 19.9907 34.1903 20.0075 34.3161C20.0243 34.4418 20.0689 34.5614 20.1377 34.6649C20.2065 34.7685 20.2974 34.8529 20.4029 34.9112C20.5084 34.9695 20.6254 34.9999 20.7441 35H37.2548C37.3743 35.0001 37.492 34.9695 37.5981 34.9106C37.7042 34.8518 37.7955 34.7665 37.8642 34.662C37.933 34.5575 37.9773 34.4368 37.9933 34.3101C38.0093 34.1834 37.9966 34.0545 37.9562 33.9341ZM28.3047 25.8486C26.4551 26.8205 24.9213 26.4557 24.1514 26.145L26.4968 18.9294C26.5248 18.8455 26.5389 18.7571 26.5385 18.6681V12.5932H31.2861V18.6171C31.2861 18.7095 31.301 18.8003 31.3293 18.8864L33.4797 25.3038C32.1945 24.9819 30.269 24.8147 28.3047 25.8486Z" fill="white"/>
<path d="M14 39.7145C14 40.1694 14.1575 40.6048 14.4395 40.9258C16.2325 42.9753 18.086 44 20 44C21.54 44 23.04 43.3376 24.5 42.0129C25.96 43.3376 27.46 44 29 44C30.54 44 32.04 43.3376 33.5 42.0129C34.96 43.3376 36.46 44 38 44C39.914 44 41.767 42.9758 43.559 40.9274C43.8437 40.5978 44.0013 40.1643 44 39.7145C44 38.7677 43.328 38 42.5 38C42.3008 38.0009 42.1039 38.0457 41.9215 38.1317C41.7391 38.2177 41.575 38.343 41.4395 38.5C40.2315 39.8817 39.085 40.5726 38 40.5726C36.917 40.5726 35.7735 39.886 34.5695 38.5129C34.2735 38.1763 33.917 38.0081 33.5 38.0081C33.082 38.0081 32.7255 38.1763 32.4305 38.5129C31.2265 39.886 30.083 40.5726 29 40.5726C27.917 40.5726 26.7735 39.886 25.5695 38.5129C25.2745 38.1763 24.918 38.0081 24.5 38.0081C24.082 38.0081 23.7255 38.1763 23.4305 38.5129C22.2265 39.8849 21.083 40.571 20 40.571C18.914 40.571 17.7675 39.8812 16.5605 38.5016C16.4251 38.3444 16.2611 38.2187 16.0787 38.1324C15.8963 38.0461 15.6993 38.0011 15.5 38C14.672 38 14 38.7677 14 39.7145Z" fill="white"/>
</svg>
