<svg width="58" height="58" viewBox="0 0 58 58" fill="none" xmlns="http://www.w3.org/2000/svg">
<circle cx="29" cy="29" r="29" fill="#3A4B5B"/>
<path d="M29.0004 11.6001C35.4059 11.6001 40.6004 13.3304 40.6004 15.4668C40.6004 17.6031 35.4059 19.3334 29.0004 19.3334C22.5949 19.3334 17.4004 17.6031 17.4004 15.4668C17.4004 13.3304 22.5949 11.6001 29.0004 11.6001ZM29.0004 13.5334C26.1607 13.5334 23.5275 13.9046 21.6599 14.5272C21.2006 14.6818 20.8317 14.8326 20.5463 14.966L20.1751 15.1555L19.9176 15.3102L19.7691 15.4165C19.7366 15.4436 19.7204 15.461 19.7204 15.4668C19.7204 15.4726 19.7366 15.49 19.7668 15.517L19.9176 15.6253L20.1728 15.778L20.544 15.9675C20.8317 16.1028 21.2006 16.2536 21.6576 16.4064C23.5298 17.0289 26.163 17.4001 29.0004 17.4001C31.8378 17.4001 34.4733 17.0289 36.3409 16.4064C36.8002 16.2517 37.1691 16.1009 37.4545 15.9675L37.8257 15.778L38.0832 15.6234L38.2317 15.517L38.2804 15.4668L38.234 15.4165L38.0832 15.3082L37.828 15.1555L37.4568 14.966C37.0976 14.7994 36.7256 14.6528 36.3432 14.5272C34.4709 13.9046 31.8378 13.5334 29.0004 13.5334ZM29.0004 38.6668C35.4059 38.6668 40.6004 40.3971 40.6004 42.5334C40.6004 44.6698 35.4059 46.4001 29.0004 46.4001C22.5949 46.4001 17.4004 44.6698 17.4004 42.5334C17.4004 40.3971 22.5949 38.6668 29.0004 38.6668ZM29.0004 40.6001C26.1607 40.6001 23.5275 40.9713 21.6599 41.5938C21.2006 41.7485 20.8317 41.8993 20.5463 42.0327L20.1751 42.2222L19.9176 42.3768L19.7691 42.4832C19.7366 42.5102 19.7204 42.5276 19.7204 42.5334C19.7204 42.5392 19.7366 42.5566 19.7668 42.5837L19.9176 42.692L20.1728 42.8447L20.544 43.0342C20.8317 43.1695 21.2006 43.3203 21.6576 43.473C23.5275 44.0956 26.1607 44.4668 29.0004 44.4668C31.8401 44.4668 34.4733 44.0956 36.3409 43.473C36.8002 43.3184 37.1691 43.1676 37.4545 43.0342L37.8257 42.8447L38.0832 42.69L38.2317 42.5837L38.2804 42.5334L38.234 42.4832L38.0832 42.3749L37.828 42.2222L37.4568 42.0327C37.0976 41.8661 36.7256 41.7195 36.3432 41.5938C34.4709 40.9713 31.8378 40.6001 29.0004 40.6001Z" fill="white"/>
<path d="M17.4004 14.9143V42.2572H19.7204V14.9143H17.4004ZM38.2804 14.9143V42.2572H40.6004V14.9143H38.2804Z" fill="white"/>
</svg>
