<svg width="58" height="58" viewBox="0 0 58 58" fill="none" xmlns="http://www.w3.org/2000/svg">
<circle cx="29" cy="29" r="29" fill="#E9C187"/>
<path d="M38.4297 21.853C38.4297 22.0847 38.5217 22.3068 38.6855 22.4706C38.8493 22.6344 39.0714 22.7264 39.303 22.7264C39.5346 22.7264 39.7567 22.6344 39.9205 22.4706C40.0843 22.3068 40.1763 22.0847 40.1763 21.853C40.1763 21.6214 40.0843 21.3993 39.9205 21.2355C39.7567 21.0717 39.5346 20.9797 39.303 20.9797C39.0714 20.9797 38.8493 21.0717 38.6855 21.2355C38.5217 21.3993 38.4297 21.6214 38.4297 21.853Z" fill="white"/>
<path d="M43.4944 18.3598C40.6998 14.1679 39.3025 13.6439 38.4292 13.8186H38.0799C35.8093 14.8665 34.0627 16.9625 33.364 19.4078C33.0147 20.4557 32.84 21.853 32.6654 23.2503C31.4427 22.2024 29.6961 21.853 28.1241 22.5517C26.9015 23.0757 24.8055 23.425 23.4082 22.5517C22.3603 22.0277 21.6616 21.1544 21.487 19.9318C21.1376 17.8358 22.3603 16.7878 23.0589 16.4385C24.2816 15.3905 26.0282 15.3905 27.0762 16.0892C27.4255 16.4385 27.9495 16.2638 28.2988 15.9145C28.6481 15.5652 28.4735 15.0412 28.1241 14.6919C26.5522 13.4692 24.1069 13.4692 22.1856 14.6919C20.2643 15.9145 19.391 18.0105 19.7403 20.1064C20.0897 21.853 21.1376 23.2503 22.5349 24.1237C24.6309 25.1716 27.2508 24.8223 28.9974 23.949C30.2201 23.425 31.6174 23.949 32.1414 25.1716C32.316 25.521 32.316 26.045 32.316 26.3943C31.9667 27.9662 31.4427 29.7129 30.5694 31.2848C29.1721 33.5554 26.9015 35.4767 24.4562 36.6994C24.2816 35.3021 23.9322 33.9048 23.2336 32.5075C22.1856 31.1102 20.7883 30.0622 19.0417 29.7129C18.6924 29.7129 18.343 29.7129 18.1684 30.0622C17.9937 30.4115 17.819 30.5862 17.4697 30.9355C16.7711 30.5862 16.0724 30.2369 15.1991 30.2369C14.1511 30.2369 13.2778 30.2369 12.2298 30.5862C11.8805 30.7608 11.7058 30.9355 11.7058 31.2848C11.3565 33.5554 11.8805 35.4767 13.1031 37.398C13.1031 37.398 13.1031 37.5727 13.2778 37.5727C14.5004 38.7953 16.2471 39.6686 17.9937 40.018C18.6924 40.7166 19.5657 41.2406 20.6136 41.5899C21.487 42.1139 25.6789 44.5592 30.7441 44.5592C32.6654 44.5592 34.7613 44.2099 36.8573 43.1619C42.6211 40.3673 45.4157 36.0007 46.1144 28.3156C46.1144 24.6476 45.4157 21.3291 43.4944 18.3598ZM15.8978 36.0007C15.8978 36.5247 16.0724 37.0487 16.4217 37.5727C15.7231 37.2234 15.0244 36.874 14.5004 36.35C13.6271 35.1274 13.2778 33.5554 13.2778 32.1581C13.8018 31.9835 14.3258 31.9835 14.8498 31.9835C15.3738 31.9835 15.8978 32.3328 16.4217 32.5075C16.0724 33.5554 15.8978 34.7781 15.8978 36.0007ZM21.3123 39.8433C21.3123 39.8433 21.1376 39.8433 21.1376 39.6686C19.2163 39.1446 17.9937 37.5727 17.6444 35.6514C17.4697 34.0794 17.9937 32.6821 18.867 31.4595C19.915 31.8088 20.963 32.5075 21.487 33.3808C22.1856 34.7781 22.5349 36.35 22.5349 37.922C22.5349 38.2713 22.7096 38.446 22.8843 38.6207C23.0589 38.7953 23.4082 38.7953 23.7576 38.7953C25.6789 38.0967 27.6001 36.874 29.1721 35.4767C29.6961 36.874 30.5694 38.2713 31.6174 39.3193C32.84 40.1926 34.0627 41.0659 35.2853 41.5899C28.8228 44.2099 22.1856 40.3673 21.3123 39.8433ZM37.3813 40.7166C37.2066 40.7166 37.2066 40.7166 37.3813 40.7166C35.6346 40.018 34.0627 39.1446 32.6654 38.0967C31.6174 37.0487 30.9187 35.8261 30.5694 34.6034C30.5694 34.4288 30.3947 34.4288 30.3947 34.2541C30.9187 33.5554 31.4427 33.0315 31.9667 32.1581C32.1414 31.9835 32.1414 31.8088 32.316 31.6342C33.5387 32.8568 34.936 33.9048 36.5079 34.7781C38.0799 35.3021 39.8265 35.6514 41.5732 35.6514H42.4465C41.2238 37.7473 39.4772 39.494 37.3813 40.7166ZM42.9705 33.9048C40.8745 34.0794 38.7786 33.9048 37.0319 33.2061C35.46 32.5075 34.0627 31.2848 33.0147 29.8875C33.888 27.4423 34.2373 25.3463 34.412 23.425C34.5867 22.0277 34.7613 20.9797 35.1106 19.9318C35.6346 18.0105 37.0319 16.4385 38.7786 15.5652C39.1279 15.7399 40.1759 16.2638 42.0971 19.4078C42.7958 20.4557 43.1451 21.5037 43.4944 22.5517C41.9225 24.473 39.6519 25.8703 37.2066 26.2196C36.6826 26.2196 36.3333 26.7436 36.5079 27.2676C36.5079 27.6169 37.0319 27.9662 37.3813 27.9662H37.5559C40.0012 27.4423 42.2718 26.2196 44.1931 24.473C44.3678 25.521 44.5424 26.7436 44.5424 27.9662C44.0184 30.2369 43.6691 32.1581 42.9705 33.9048Z" fill="white"/>
</svg>
