<svg width="80" height="80" viewBox="0 0 80 80" fill="none" xmlns="http://www.w3.org/2000/svg">
<path d="M0 40C0 50.6087 4.21427 60.7828 11.7157 68.2843C19.2172 75.7857 29.3913 80 40 80C50.6087 80 60.7828 75.7857 68.2843 68.2843C75.7857 60.7828 80 50.6087 80 40C80 29.3913 75.7857 19.2172 68.2843 11.7157C60.7828 4.21427 50.6087 0 40 0C29.3913 0 19.2172 4.21427 11.7157 11.7157C4.21427 19.2172 0 29.3913 0 40Z" fill="#3A4B5B"/>
<path d="M39.9996 34.5942C42.388 34.5942 44.6786 33.6568 46.3675 31.9883C48.0563 30.3198 49.0051 28.0568 49.0051 25.6971C49.0051 23.3375 48.0563 21.0745 46.3675 19.4059C44.6786 17.7374 42.388 16.8 39.9996 16.8C37.6112 16.8 35.3206 17.7374 33.6318 19.4059C31.9429 21.0745 30.9941 23.3375 30.9941 25.6971C30.9941 28.0568 31.9429 30.3198 33.6318 31.9883C35.3206 33.6568 37.6112 34.5942 39.9996 34.5942ZM39.9996 58.8C34.1514 58.8 28.3125 57.5203 22.4828 54.9608C22.2199 54.8452 21.9966 54.6568 21.8399 54.4185C21.6831 54.1801 21.5997 53.902 21.5996 53.6177C21.5996 48.5981 23.3957 44.3131 26.988 40.7628C30.5816 37.2138 34.9188 35.4393 39.9996 35.4393C45.0804 35.4393 49.4169 37.2138 53.0092 40.7628C56.6028 44.3131 58.3996 48.5981 58.3996 53.6177C58.3994 53.9022 58.3156 54.1805 58.1585 54.4189C58.0014 54.6573 57.7777 54.8455 57.5144 54.9608C51.6861 57.5203 45.8478 58.8 39.9996 58.8Z" fill="white"/>
<path opacity="0.8" d="M34.522 48.7862C34.3982 49.07 34.368 49.3851 34.4357 49.6868C34.5034 49.9885 34.6656 50.2615 34.8993 50.467L39.4123 54.4289C39.6848 54.6679 40.0366 54.8 40.4011 54.8C40.7655 54.8 41.1173 54.6679 41.3899 54.4289L45.9009 50.467C46.135 50.2614 46.2974 49.988 46.3652 49.6859C46.4329 49.3838 46.4024 49.0683 46.2782 48.7842L41.7671 38.4853C41.6515 38.2223 41.4607 37.9984 41.218 37.8411C40.9753 37.6838 40.6913 37.6 40.4011 37.6C40.1108 37.6 39.8269 37.6838 39.5842 37.8411C39.3415 37.9984 39.1506 38.2223 39.0351 38.4853L34.522 48.7842V48.7862Z" fill="#3A4B5B"/>
</svg>
