<svg width="58" height="58" viewBox="0 0 58 58" fill="none" xmlns="http://www.w3.org/2000/svg">
<circle cx="29" cy="29" r="29" fill="#3A4B5B"/>
<path d="M38.4799 21.8609C35.393 22.7104 32.201 23.117 28.9996 23.0686C25.7933 23.1177 22.5962 22.7111 19.5042 21.8609C18.2969 21.5545 17.1627 21.0105 16.168 20.2607V36.7154C16.168 38.844 21.9045 40.6404 28.9996 40.6404C36.0948 40.6404 41.8313 38.8817 41.8313 36.7154V20.2607C40.8377 21.0253 39.7006 21.5823 38.4875 21.8987L38.4799 21.8609Z" fill="white"/>
<path d="M19.8607 20.6835C22.8377 21.4981 25.9152 21.8869 29.0013 21.8383C32.0824 21.8857 35.1547 21.4969 38.1269 20.6835C40.6479 19.9286 41.5461 19.0078 41.5461 18.419C41.5461 17.8303 40.6479 16.9094 38.1269 16.1546C35.1566 15.3299 32.0837 14.9334 29.0013 14.9771C25.9135 14.9347 22.8355 15.3337 19.8607 16.1622C17.3396 16.917 16.4414 17.8303 16.4414 18.4266C16.4414 19.0229 17.3396 19.9362 19.8607 20.691V20.6835Z" fill="white" fill-opacity="0.6"/>
</svg>
