<svg width="58" height="58" viewBox="0 0 58 58" fill="none" xmlns="http://www.w3.org/2000/svg">
<circle cx="29" cy="29" r="29" fill="#497EB8"/>
<path d="M41.2131 29.8818L40.5312 29.8674H37.9264L37.931 29.0923C37.9303 24.2939 34.0079 20.3738 29.1868 20.3738C24.3672 20.3738 20.4452 24.2939 20.4452 29.1138L20.4487 29.8674H17.1617V29.1848C17.1594 29.175 17.1582 29.1446 17.1582 29.1138C17.1582 22.4817 22.5538 17.0852 29.1868 17.0852C35.8209 17.0852 41.2161 22.4817 41.2161 29.1138L41.2131 29.8818ZM39.2775 28.5018H39.8346C39.5217 22.9115 34.8652 18.4516 29.1868 18.4516C23.5122 18.4516 18.8588 22.906 18.5409 28.5018H19.0979C19.415 23.213 23.8188 19.0078 29.1868 19.0078C34.5555 19.0078 38.9601 23.213 39.2775 28.5018Z" fill="white"/>
<path d="M19.7636 29.1139C19.7636 23.9183 23.9907 19.6909 29.1878 19.6909C34.3858 19.6909 38.6147 23.9183 38.6147 29.1139C38.6147 29.1385 38.61 29.1615 38.61 29.1849H40.5322C40.5322 29.1615 40.5353 29.1385 40.5353 29.1139C40.5353 22.8492 35.4568 17.7683 29.1878 17.7683C22.9211 17.7683 17.8418 22.8492 17.8418 29.1139C17.8418 29.1385 17.8453 29.1615 17.8453 29.1849H19.7671C19.7671 29.1615 19.7636 29.1385 19.7636 29.1139Z" fill="white"/>
<path d="M28.2501 37.0905C26.0588 37.0905 24.2754 35.3067 24.2754 33.1142C24.2754 30.9232 26.0587 29.1398 28.2501 29.1398C28.3593 29.1398 28.4678 29.1449 28.5793 29.1555L34.1025 24.073L31.8824 31.504C32.1078 32.0102 32.2256 32.5618 32.2256 33.1141C32.2256 35.3066 30.4422 37.0905 28.2501 37.0905ZM28.2501 32.0251C27.6494 32.0251 27.1611 32.5138 27.1611 33.1142C27.1611 33.7145 27.6494 34.2043 28.2501 34.2043C28.8524 34.2043 29.3407 33.7145 29.3407 33.1142C29.3407 32.5138 28.8524 32.0251 28.2501 32.0251Z" fill="white"/>
<path d="M29.1852 47.9887C18.8159 47.9887 10.3789 39.5532 10.3789 29.1844C10.3789 18.8163 18.8158 10.3809 29.1852 10.3809C39.5591 10.3809 47.9992 18.8163 47.9992 29.1844C47.9992 39.5532 39.5591 47.9887 29.1852 47.9887ZM29.1852 14.0517C20.8402 14.0517 14.0517 20.8399 14.0517 29.1844C14.0517 37.5281 20.8403 44.3174 29.1852 44.3174C37.5339 44.3174 44.3264 37.5281 44.3264 29.1844C44.3264 20.8399 37.5339 14.0517 29.1852 14.0517Z" fill="white"/>
</svg>
