<svg width="58" height="58" viewBox="0 0 58 58" fill="none" xmlns="http://www.w3.org/2000/svg">
<circle cx="29" cy="29" r="29" fill="#3A4B5B"/>
<path d="M44.6032 30.2681L31.7281 17.3929C31.2989 16.9637 30.6245 16.6572 30.0114 16.7185L19.3434 17.0864C18.1172 17.1477 17.1362 18.1286 17.0749 19.3548L16.707 30.0228C16.707 30.6359 16.9523 31.3104 17.3814 31.7395L30.2566 44.6147C30.6858 45.0439 31.2989 45.2891 31.912 45.2891C32.5251 45.2891 33.0769 45.0439 33.5674 44.6147L44.6032 33.5788C45.5229 32.6592 45.5229 31.1877 44.6032 30.2681ZM26.0875 26.099C25.2292 26.9573 23.8803 26.9573 23.022 26.099C22.1636 25.2406 22.1636 23.8918 23.022 23.0335C23.8803 22.1751 25.2292 22.1751 26.0875 23.0335C26.8845 23.8918 26.8845 25.2406 26.0875 26.099Z" fill="white"/>
</svg>
