<svg width="80" height="80" viewBox="0 0 80 80" fill="none" xmlns="http://www.w3.org/2000/svg">
<circle cx="40" cy="40" r="40" fill="#497EB8"/>
<path d="M49.5964 33.0073C49.4162 31.8959 48.8746 31.4083 47.7471 31.3156C47.2101 31.2715 46.6631 31.2738 46.1259 31.3186C42.503 31.6203 39.9372 27.1075 42.0308 24.2146C42.3639 23.7544 42.6386 23.2446 42.8834 22.7309C43.0865 22.3048 43.2662 21.837 43.003 21.3632C42.2321 19.9754 40.9269 19.3174 39.4622 19.05C38.1812 18.8161 37.7788 19.939 37.2636 20.8047C37.0042 21.2408 36.7562 21.6874 36.4563 22.0951C35.914 22.8321 35.2027 23.3316 34.2988 23.5726C31.7846 24.2429 29.8694 23.3776 28.5205 20.9332C27.2956 18.7134 26.4542 18.4926 24.2772 19.8249C24.0335 19.9741 23.7921 20.1304 23.5661 20.3047C22.5261 21.1064 22.3543 21.8897 22.9746 23.0396C23.3359 23.7093 23.7765 24.3421 24.0821 25.035C25.2294 27.6354 23.3081 30.943 20.479 31.2391C19.6598 31.3248 18.827 31.2728 18.0016 31.3097C17.218 31.3448 16.5413 31.6168 16.2832 32.425C15.9075 33.6016 15.9071 34.8042 16.273 35.9825C16.4775 36.6409 16.9671 37.0418 17.6814 37.0846C18.1248 37.1111 18.571 37.0895 19.0159 37.0895C20.5627 37.0556 21.9912 37.2868 23.09 38.5403C24.7115 40.3899 24.8623 42.2117 23.5317 44.4765C22.112 46.8929 22.3633 47.7102 24.9208 48.9635C25.2046 49.1026 25.5016 49.2177 25.7992 49.3257C26.6332 49.6285 27.3161 49.3772 27.8059 48.6789C28.1873 48.1352 28.5285 47.5564 28.8272 46.963C30.3594 43.9196 35.3321 43.9181 36.8737 46.9439C37.1753 47.5359 37.5032 48.1246 37.8965 48.658C38.5556 49.5517 39.2672 49.7087 40.4241 49.1269C41.6151 48.528 43.0617 48.0895 43.0881 46.3786C43.0953 45.912 42.7921 45.485 42.5494 45.0724C42.2439 44.553 41.9111 44.0441 41.6631 43.4978C40.4996 40.9353 42.2611 37.6969 45.0438 37.2123C45.9335 37.0574 46.8234 37.1811 47.711 37.1195C48.8506 37.0405 49.3946 36.5905 49.5913 35.4724C49.7346 34.6575 49.7288 33.8232 49.5964 33.0073ZM32.9264 40.894C29.1749 40.9102 26.1635 37.9534 26.1543 34.2443C26.1449 30.5214 29.133 27.555 32.8841 27.5631C36.5916 27.5712 39.5442 30.5102 39.5536 34.2017C39.5629 37.8881 36.602 40.878 32.9264 40.894ZM63.9884 46.2128C63.9369 45.6714 63.7743 45.1564 63.5329 44.6699C63.1938 43.9867 62.6805 43.6899 61.8971 43.9045C61.2261 44.0882 60.5783 44.39 59.9025 44.3575C57.7664 44.4015 56.2865 42.2645 56.885 40.0651C57.3343 38.4142 57.0528 37.8856 55.5091 37.4814C53.9476 37.0725 53.3701 37.4274 53.0186 39.0117C52.9911 39.1356 52.9631 39.2593 52.932 39.3823C52.296 41.8917 49.4641 42.7293 47.5415 40.976C47.2366 40.698 46.9413 40.4095 46.633 40.1354C46.1989 39.7493 45.7233 39.7419 45.2171 39.992C43.4072 40.8864 43.146 42.3514 44.5802 43.7041C45.4101 44.4868 45.926 45.3527 45.7496 46.5582C45.5107 48.1912 44.5453 49.0424 42.9921 49.4325C41.4235 49.8264 41.1477 50.3889 41.6059 51.9229C42.0615 53.4482 42.6139 53.7672 44.1399 53.2653C45.4433 52.8366 46.599 52.8541 47.6769 53.8588C48.8146 54.9192 48.8942 56.1422 48.5092 57.5202C48.3593 58.0569 48.0676 58.6734 48.5606 59.143C49.3107 59.8575 50.2719 60.0928 51.2884 59.9683C52.1931 59.8575 52.2397 59.0689 52.4095 58.3991C52.4641 58.1839 52.5122 57.9667 52.5776 57.7548C53.2828 55.4712 55.9876 54.7013 57.7936 56.2732C58.1286 56.5649 58.4279 56.8979 58.7665 57.1851C59.1903 57.5445 59.6626 57.6216 60.1852 57.3727C62.0348 56.4919 62.295 54.989 60.8299 53.6067C60.7837 53.5632 60.7353 53.5218 60.6898 53.4775C58.826 51.6582 59.5383 48.7907 62.0367 48.0547C62.3414 47.965 62.6442 47.8673 62.9516 47.7879C63.7781 47.5744 64.0638 47.0071 63.9884 46.2128ZM52.7313 53.2695C50.2329 53.3156 48.1108 51.2133 48.1055 48.6868C48.1002 46.1566 50.136 44.1197 52.7149 44.0752C55.1999 44.0323 57.3247 46.1402 57.3452 48.6685C57.3654 51.1803 55.3184 53.2217 52.7313 53.2695Z" fill="white"/>
</svg>
