<svg width="58" height="58" viewBox="0 0 58 58" fill="none" xmlns="http://www.w3.org/2000/svg">
  <title>Proven global export footprint logistics icon</title>
  <circle cx="29" cy="29" r="29" fill="#3A4B5B"/>
  <svg x="11.5" y="11.5" width="35" height="35" viewBox="0 0 1024 1024" aria-hidden="true">
    <path d="M531.2 960C268.8 960 57.6 748.8 57.6 486.4 57.6 230.4 268.8 12.8 512 6.4c275.2-6.4 492.8 204.8 499.2 473.6-6.4 281.6-236.8 492.8-480 480z m121.6-486.4c96 0 96 0 83.2-96v-25.6C723.2 256 716.8 256 633.6 275.2h-12.8c-64 12.8-64 12.8-64 76.8v19.2c0 115.2-19.2 102.4 96 102.4z m-249.6 0h51.2c44.8 0 57.6-12.8 51.2-51.2V320c0-12.8-12.8-32-25.6-32-134.4-51.2-134.4-44.8-153.6 89.6-12.8 96-12.8 96 76.8 96z m243.2 32h-51.2c-25.6-6.4-44.8 6.4-38.4 44.8v108.8c0 12.8 12.8 32 25.6 32 134.4 44.8 134.4 44.8 160-96 12.8-108.8 6.4-89.6-96-89.6zM505.6 595.2v-44.8c6.4-32-6.4-51.2-44.8-44.8H352c-32-6.4-38.4 12.8-38.4 38.4 6.4 32 12.8 64 12.8 96 19.2 76.8 19.2 76.8 96 64 83.2-19.2 83.2-19.2 83.2-108.8z m358.4-121.6c70.4 0 76.8 0 57.6-70.4-19.2-64-57.6-121.6-89.6-179.2-6.4-12.8-38.4-19.2-44.8-12.8-12.8 6.4-19.2 32-19.2 44.8 6.4 51.2 19.2 96 25.6 147.2 6.4 70.4 6.4 70.4 70.4 70.4z m-6.4 32c-64 0-57.6 0-70.4 57.6-6.4 51.2-19.2 102.4-25.6 153.6 0 12.8 6.4 38.4 19.2 44.8 12.8 6.4 38.4 0 44.8-12.8 57.6-57.6 89.6-134.4 96-211.2 0-12.8-12.8-25.6-25.6-32-6.4-6.4-19.2 0-38.4 0zM198.4 460.8c64 0 64 0 76.8-64 6.4-44.8 19.2-89.6 25.6-140.8 0-12.8-6.4-38.4-19.2-44.8-12.8-6.4-38.4 0-44.8 12.8-32 57.6-64 108.8-83.2 172.8-32 57.6-19.2 64 44.8 64z m0 51.2c-64 0-76.8 6.4-51.2 64 19.2 57.6 51.2 108.8 83.2 166.4 6.4 12.8 32 19.2 51.2 19.2 25.6-6.4 25.6-32 19.2-51.2-12.8-44.8-25.6-89.6-32-134.4-6.4-64-6.4-64-70.4-64z m358.4 300.8v25.6c6.4 12.8 6.4 38.4 12.8 38.4 12.8 0 38.4-6.4 44.8-12.8 19.2-19.2 38.4-44.8 51.2-64 19.2-19.2 6.4-32-12.8-44.8-70.4-32-96-19.2-96 57.6z m19.2-576c38.4-6.4 57.6-12.8 83.2-19.2 6.4 0 19.2-12.8 19.2-19.2 6.4-32-76.8-115.2-102.4-102.4-44.8 25.6-12.8 70.4-19.2 108.8 0 6.4 12.8 25.6 19.2 32zM505.6 166.4v-25.6c-6.4-19.2-6.4-38.4-12.8-44.8-12.8 0-32 6.4-44.8 12.8-12.8 6.4-19.2 12.8-25.6 19.2L384 204.8c25.6 12.8 57.6 19.2 83.2 32 25.6 6.4 38.4-6.4 38.4-32v-38.4zM512 812.8c-6.4-76.8-6.4-83.2-57.6-70.4-25.6 6.4-44.8 19.2-70.4 25.6 12.8 25.6 19.2 51.2 38.4 64 19.2 19.2 44.8 25.6 70.4 38.4 6.4-12.8 12.8-32 19.2-57.6z" fill="white"/>
  </svg>
</svg>