<svg width="58" height="58" viewBox="0 0 58 58" fill="none" xmlns="http://www.w3.org/2000/svg">
<circle cx="29" cy="29" r="29" fill="#3A4B5B"/>
<path d="M34.2643 28.4464L28.272 34.9992C28.1693 35.1113 28.0444 35.2008 27.9053 35.262C27.7661 35.3232 27.6158 35.3547 27.4638 35.3546H27.4586C27.306 35.3537 27.1552 35.3209 27.016 35.2582C26.8768 35.1955 26.7523 35.1044 26.6504 34.9907L23.7252 31.7134C23.6192 31.6084 23.536 31.4827 23.4804 31.3443C23.4248 31.2058 23.3982 31.0575 23.4021 30.9084C23.406 30.7592 23.4404 30.6125 23.5032 30.4771C23.5659 30.3418 23.6557 30.2207 23.7669 30.1214C23.8782 30.022 24.0086 29.9465 24.1502 29.8994C24.2917 29.8523 24.4414 29.8347 24.59 29.8476C24.7386 29.8605 24.883 29.9037 25.0144 29.9745C25.1457 30.0453 25.2611 30.1422 25.3535 30.2593L27.4723 32.6344L32.6531 26.9718C32.8518 26.7708 33.1206 26.6545 33.4031 26.6474C33.6857 26.6402 33.96 26.7428 34.1686 26.9335C34.3772 27.1242 34.5039 27.3883 34.5221 27.6703C34.5402 27.9524 34.4485 28.2305 34.2661 28.4464M38.8248 17.7859H36.6446C36.6411 17.7859 36.6446 18.4865 36.6446 18.8897V21.0546C36.6464 21.6347 36.418 22.1918 36.0096 22.6038C35.6012 23.0157 35.0461 23.2488 34.466 23.252H23.5338C22.9534 23.2493 22.3978 23.0163 21.989 22.6044C21.5803 22.1924 21.3517 21.635 21.3535 21.0546V18.8914C21.3535 18.4865 21.3484 18.1567 21.3484 17.7876H19.1612C17.9583 17.7876 16.9844 18.7616 16.9844 19.9628V39.64C16.9844 40.8395 17.9583 41.8152 19.1595 41.8152H38.8385C39.4151 41.8143 39.9679 41.5848 40.3756 41.1771C40.7833 40.7694 41.0128 40.2166 41.0137 39.64V19.9628C41.0105 19.3842 40.7782 18.8304 40.3677 18.4227C39.9571 18.0151 39.4017 17.7867 38.8231 17.7876" fill="white"/>
<path d="M34.3946 16.9845C34.2732 16.7474 34.0897 16.5478 33.8637 16.4069C33.6377 16.2661 33.3776 16.1893 33.1114 16.1848H24.8857C24.3355 16.1848 23.8605 16.5078 23.6008 16.9828C23.4639 17.2314 23.3916 17.5105 23.3906 17.7944V19.3784C23.3906 20.2669 24.0604 20.9914 24.8857 20.9914H33.1114C33.9349 20.9914 34.603 20.2686 34.603 19.3784V17.7944C34.603 17.5112 34.5313 17.2325 34.3946 16.9845Z" fill="white" fill-opacity="0.6"/>
</svg>
