<svg width="80" height="80" viewBox="0 0 80 80" fill="none" xmlns="http://www.w3.org/2000/svg">
<circle cx="40" cy="40" r="40" fill="#3A4B5B"/>
<path d="M40 19.8258L55.5611 27.0045V37.9661C55.5611 43.1674 53.8846 48.3688 50.7896 52.6245C47.9525 56.5792 44.1267 59.4163 40 60.7059C35.8303 59.4163 32.0475 56.5792 29.2104 52.6245C26.1154 48.3688 24.4389 43.1674 24.4389 37.9661V27.0045L40 19.8258ZM40 16L21 24.7692V37.9231C21 50.0883 29.1244 61.4367 40 64.2308C50.9186 61.4797 59 50.0883 59 37.9231V24.7692L40 16ZM50.2738 40.0294C50.2738 34.3122 45.6742 29.7127 39.957 29.7127C34.2398 29.7127 29.6403 34.3122 29.6403 40.0294C29.6403 45.7466 34.2398 50.3462 39.957 50.3462C41.2466 50.3462 42.4502 50.0883 43.6109 49.7014L46.7489 52.8394L49.1991 50.3892L46.6629 47.853C48.8552 45.9616 50.2738 43.1674 50.2738 40.0294ZM39.957 46.9073C36.1742 46.9073 33.0792 43.8122 33.0792 40.0294C33.0792 36.2466 36.1742 33.1516 39.957 33.1516C43.7398 33.1516 46.8349 36.2466 46.8349 40.0294C46.8349 42.2217 45.8032 44.1561 44.2127 45.4027L41.8914 43.0815L39.4412 45.5317L40.7738 46.8643C40.5158 46.8643 40.2149 46.9073 39.957 46.9073Z" fill="white"/>
</svg>
