<svg width="80" height="80" viewBox="0 0 80 80" fill="none" xmlns="http://www.w3.org/2000/svg">
<path d="M0 40C0 50.6087 4.21427 60.7828 11.7157 68.2843C19.2172 75.7857 29.3913 80 40 80C50.6087 80 60.7828 75.7857 68.2843 68.2843C75.7857 60.7828 80 50.6087 80 40C80 29.3913 75.7857 19.2172 68.2843 11.7157C60.7828 4.21427 50.6087 0 40 0C29.3913 0 19.2172 4.21427 11.7157 11.7157C4.21427 19.2172 0 29.3913 0 40Z" fill="#497EB8"/>
<path d="M33.8287 52.6027C36.6742 52.6027 38.9868 54.9153 38.9868 57.7608C38.9868 60.6039 36.6742 63.002 33.8287 63.002H31.2472C31.2472 60.1589 33.5623 57.7584 36.4078 57.7584C35.0401 57.7577 33.7287 57.2145 32.7612 56.2479C31.7937 55.2813 31.2492 53.9703 31.2472 52.6027H33.8287ZM53.8499 49.7279C52.3318 54.3726 48.0049 57.7584 42.859 57.7584H41.5683L42.551 56.7805C43.5826 55.7489 44.1498 54.3824 44.1498 52.9132C44.1498 52.6809 44.1131 52.4609 44.0862 52.236C44.9394 52.4609 45.8194 52.6027 46.7313 52.6027C49.3866 52.6008 51.9379 51.5704 53.8499 49.7279ZM48.6772 36.0895C50.1216 36.9294 51.3681 38.0708 52.3316 39.436C53.2951 40.8011 53.953 42.3578 54.2606 44.0002C53.4294 47.496 50.337 50.0237 46.7313 50.0237C45.4692 50.0224 44.2267 49.711 43.1133 49.1167C44.9531 48.3026 46.5175 46.9728 47.6173 45.2882C48.7171 43.6035 49.3052 41.6363 49.3103 39.6244C49.3091 38.6178 49.1592 37.617 48.8654 36.6542L48.6772 36.092V36.0895ZM42.859 34.4688C43.5582 34.4688 44.2353 34.5568 44.9003 34.6741C46.0541 36.0504 46.7313 37.7836 46.7313 39.6244C46.7313 44.2422 42.9104 47.4471 38.6788 47.4471H36.2464C37.113 46.5939 37.8016 45.5772 38.2724 44.456C38.7432 43.3347 38.9869 42.1312 38.9892 40.9151C38.9892 38.3899 37.9381 36.1091 36.2586 34.4688H42.859ZM29.9565 34.4688C31.667 34.4681 33.3078 35.1468 34.5181 36.3557C35.7283 37.5646 36.4089 39.2046 36.4102 40.9151C36.4102 44.2398 33.9045 47.0608 30.6801 47.4202H30.6288C24.0186 47.1513 18 41.5532 18 34.4688H29.9565ZM27.375 38.3361C27.033 38.3361 26.705 38.4719 26.4632 38.7138C26.2213 38.9556 26.0855 39.2836 26.0855 39.6256C26.0855 39.9676 26.2213 40.2956 26.4632 40.5374C26.705 40.7793 27.033 40.9151 27.375 40.9151C27.717 40.9151 28.045 40.7793 28.2868 40.5374C28.5287 40.2956 28.6645 39.9676 28.6645 39.6256C28.6645 39.2836 28.5287 38.9556 28.2868 38.7138C28.045 38.4719 27.717 38.3361 27.375 38.3361Z" fill="white"/>
<path d="M61.5892 34.1728C60.6556 37.0196 58.6673 39.4007 56.0326 40.827C55.4785 39.4369 54.7079 38.1432 53.7494 36.9939C53.989 37.0134 54.2261 37.0477 54.4706 37.0477C57.1259 37.0457 59.6772 36.0154 61.5892 34.1728ZM56.4164 20.62C57.8612 21.4602 59.1078 22.602 60.0713 23.9676C61.0349 25.3331 61.6927 26.8904 61.9999 28.5332C61.601 30.2285 60.6394 31.7387 59.2721 32.8175C57.9047 33.8963 56.2122 34.48 54.4706 34.4735C53.208 34.4707 51.9656 34.1576 50.8526 33.5617C54.4877 31.9654 57.0496 28.3718 57.0496 24.1573C57.0496 22.9326 56.8247 21.7396 56.414 20.6225L56.4164 20.62ZM50.5983 18.9993C51.2975 18.9993 51.9746 19.0873 52.6371 19.2046C53.7934 20.5809 54.4706 22.3117 54.4706 24.1549C54.4706 28.2202 51.2975 31.8896 46.4181 31.8896H43.9857C44.8507 31.0536 45.5392 30.0525 46.0103 28.9456C46.4815 27.8388 46.7257 26.6486 46.7285 25.4456C46.7285 22.9179 45.6774 20.6396 43.9979 18.9993H50.5983ZM37.6958 18.9993C39.3506 18.9896 40.9458 19.6161 42.1516 20.7494C43.3575 21.8827 44.0817 23.436 44.1747 25.0882C44.2676 26.7403 43.7221 28.3651 42.6509 29.6264C41.5797 30.8877 40.0648 31.6892 38.4194 31.8651H38.3656C31.7579 31.5962 26.084 26.0861 26.084 18.9993H37.6958ZM35.1167 22.8666C34.9427 22.8585 34.7688 22.8858 34.6056 22.9467C34.4424 23.0077 34.2932 23.101 34.167 23.2211C34.0409 23.3413 33.9403 23.4857 33.8714 23.6457C33.8026 23.8058 33.7668 23.9781 33.7663 24.1523C33.7658 24.3265 33.8006 24.499 33.8685 24.6594C33.9365 24.8199 34.0362 24.9649 34.1617 25.0857C34.2872 25.2066 34.4359 25.3007 34.5988 25.3626C34.7616 25.4245 34.9353 25.4527 35.1094 25.4456C35.4417 25.4318 35.7559 25.2902 35.9864 25.0504C36.2169 24.8106 36.3459 24.4911 36.3465 24.1585C36.3471 23.8258 36.2193 23.5058 35.9898 23.2651C35.7602 23.0245 35.4466 22.8817 35.1143 22.8666H35.1167Z" fill="#77A6D9"/>
</svg>
