<svg width="58" height="58" viewBox="0 0 58 58" fill="none" xmlns="http://www.w3.org/2000/svg">
  <title>Strategic Uzbekistan development infrastructure icon</title>
  <circle cx="29" cy="29" r="29" fill="#E9C187"/>
  <svg x="11" y="11" width="36" height="36" viewBox="0 0 1024 1024" aria-hidden="true">
    <path d="M512.128 736C494.4 736 480 750.336 480 768s14.4 32 32.128 32c17.76 0 32.16-14.336 32.16-32s-14.4-32-32.16-32z m111.936 0c-17.76 0-32.128 14.336-32.128 32s14.4 32 32.128 32c17.76 0 32.16-14.336 32.16-32s-14.4-32-32.16-32z m111.808 0c-17.76 0-32.16 14.336-32.16 32s14.4 32 32.16 32C753.6 800 768 785.664 768 768s-14.4-32-32.128-32z" fill="white"/>
    <path d="M833.504 685.92a103.04 103.04 0 0 0-11.712-9.92v-127.424a62.08 62.08 0 0 0-61.952-61.984h-42.176a22.56 22.56 0 0 1-22.4-22.432V422.08a62.08 62.08 0 0 0-61.92-62.016h-65.92L293.76 201.792a65.824 65.824 0 0 0-47.04-8.576 66.848 66.848 0 0 0-33.216 114.24l63.52 58.944v141.28H239.84A48 48 0 0 0 192 555.68v112.544a48 48 0 0 0 47.84 48h112.416c26.464 0 47.904-21.504 47.84-48v-112.512a47.872 47.872 0 0 0-47.84-48H315.84v-105.568l129.024 120.192v153.824a102.08 102.08 0 0 0-11.616 9.888A104.32 104.32 0 0 0 506.816 864h253.024a104.416 104.416 0 0 0 73.664-178.08z m-284.48-241.536h42.144a19.776 19.776 0 0 1 0 39.552h-42.176a19.776 19.776 0 0 1 0-39.552z m256.544 361.056a64.16 64.16 0 0 1-45.728 18.976h-253.024a63.648 63.648 0 0 1-45.6-18.976 64.608 64.608 0 0 1 45.6-110.272h253.024a64.704 64.704 0 0 1 45.728 110.272z" fill="white"/>
  </svg>
</svg>