<svg width="58" height="58" viewBox="0 0 58 58" fill="none" xmlns="http://www.w3.org/2000/svg">
<circle cx="29" cy="29" r="29" fill="#5BC4DF"/>
<path d="M22.221 31.0696L18.1083 35.0977C17.7751 35.4239 17.3233 35.6072 16.8522 35.6072C16.381 35.6072 15.9292 35.4239 15.5961 35.0977C15.2629 34.7716 15.0758 34.3291 15.0758 33.8678C15.0758 33.4065 15.2629 32.9641 15.5961 32.6379L16.5349 31.7199C16.6179 31.6388 16.6744 31.5354 16.6974 31.4229C16.7203 31.3103 16.7086 31.1936 16.6637 31.0876C16.6188 30.9815 16.5428 30.8909 16.4452 30.8273C16.3477 30.7636 16.233 30.7297 16.1158 30.7299H13.3751C12.9042 30.7299 12.4526 30.5466 12.1196 30.2205C11.7867 29.8945 11.5996 29.4522 11.5996 28.9911C11.5996 28.53 11.7867 28.0878 12.1196 27.7617C12.4526 27.4356 12.9042 27.2524 13.3751 27.2524H16.201C16.3179 27.2521 16.4321 27.218 16.5292 27.1543C16.6263 27.0906 16.702 27.0001 16.7467 26.8944C16.7914 26.7886 16.8031 26.6723 16.7804 26.56C16.7576 26.4478 16.7015 26.3446 16.6189 26.2636L15.5961 25.262C15.2629 24.9358 15.0758 24.4934 15.0758 24.0321C15.0758 23.5708 15.2629 23.1284 15.5961 22.8022C15.9292 22.476 16.381 22.2928 16.8522 22.2928C17.3233 22.2928 17.7751 22.476 18.1083 22.8022L22.3062 26.9139C22.5284 27.1309 22.8295 27.2526 23.1432 27.2524L26.3125 27.2558C26.4679 27.2558 26.6219 27.2258 26.7655 27.1676C26.9091 27.1093 27.0397 27.024 27.1496 26.9163C27.2595 26.8087 27.3467 26.6809 27.4062 26.5402C27.4657 26.3996 27.4963 26.2489 27.4963 26.0966V22.8903C27.4963 22.5829 27.3715 22.2881 27.1495 22.0708L23.0118 18.0194C22.6884 17.6915 22.5094 17.2523 22.5134 16.7964C22.5175 16.3405 22.7042 15.9043 23.0335 15.582C23.3627 15.2596 23.8081 15.0767 24.2737 15.0727C24.7393 15.0688 25.1879 15.244 25.5228 15.5608L26.4853 16.5032C26.5681 16.5845 26.6737 16.6398 26.7886 16.6623C26.9036 16.6847 27.0228 16.6733 27.1311 16.6293C27.2394 16.5853 27.3319 16.5109 27.3969 16.4154C27.4619 16.3199 27.4965 16.2076 27.4963 16.0928V13.3386C27.4964 12.8775 27.6835 12.4353 28.0166 12.1093C28.3496 11.7833 28.8012 11.6001 29.2721 11.6001C29.7431 11.6001 30.1947 11.7833 30.5277 12.1093C30.8607 12.4353 31.0479 12.8775 31.0479 13.3386V16.1299C31.048 16.2445 31.0827 16.3565 31.1476 16.4517C31.2126 16.547 31.3049 16.6212 31.413 16.6651C31.521 16.709 31.6399 16.7206 31.7547 16.6984C31.8695 16.6762 31.9749 16.6212 32.0578 16.5403L33.057 15.5619C33.3919 15.2452 33.8405 15.0699 34.3061 15.0739C34.7717 15.0779 35.2171 15.2607 35.5463 15.5831C35.8756 15.9055 36.0623 16.3416 36.0664 16.7975C36.0704 17.2534 35.8914 17.6926 35.568 18.0206L31.3936 22.1079C31.172 22.3254 31.0477 22.6202 31.0479 22.9274V26.0978C31.0479 26.25 31.0786 26.4008 31.1381 26.5414C31.1976 26.682 31.2848 26.8098 31.3947 26.9175C31.5046 27.0251 31.6351 27.1105 31.7788 27.1688C31.9224 27.227 32.0763 27.257 32.2318 27.257H35.5005C35.8144 27.2569 36.1155 27.1348 36.3375 26.9173L40.5355 22.8069C40.8684 22.4807 41.3201 22.2974 41.7911 22.2973C42.2621 22.2971 42.7139 22.4803 43.047 22.8063C43.3802 23.1323 43.5674 23.5746 43.5675 24.0358C43.5676 24.497 43.3806 24.9393 43.0476 25.2655L42.0236 26.267C41.9406 26.3481 41.884 26.4515 41.8611 26.564C41.8382 26.6766 41.8499 26.7933 41.8948 26.8993C41.9397 27.0054 42.0157 27.096 42.1133 27.1596C42.2108 27.2233 42.3255 27.2572 42.4427 27.257H45.3491C45.82 27.2571 46.2716 27.4403 46.6046 27.7664C46.9376 28.0924 47.1246 28.5347 47.1246 28.9958C47.1246 29.4569 46.9376 29.8991 46.6046 30.2252C46.2716 30.5513 45.82 30.7345 45.3491 30.7346H42.5267C42.4099 30.7348 42.2957 30.7689 42.1986 30.8326C42.1015 30.8963 42.0258 30.9868 41.9811 31.0925C41.9364 31.1983 41.9247 31.3146 41.9474 31.4269C41.9701 31.5391 42.0263 31.6423 42.1088 31.7233L43.0476 32.6426C43.3806 32.9688 43.5676 33.4111 43.5675 33.8723C43.5674 34.3335 43.3802 34.7758 43.047 35.1018C42.7139 35.4278 42.2621 35.6109 41.7911 35.6108C41.3201 35.6107 40.8684 35.4274 40.5355 35.1012L36.4227 31.0742C36.3127 30.9664 36.182 30.8809 36.0382 30.8227C35.8943 30.7644 35.7402 30.7344 35.5845 30.7346H32.2318C32.0763 30.7346 31.9224 30.7645 31.7788 30.8228C31.6351 30.8811 31.5046 30.9664 31.3947 31.0741C31.2848 31.1817 31.1976 31.3095 31.1381 31.4501C31.0786 31.5908 31.0479 31.7415 31.0479 31.8937V35.0676C31.0477 35.3748 31.172 35.6696 31.3936 35.8872L35.568 39.9745C35.8914 40.3024 36.0704 40.7416 36.0664 41.1975C36.0623 41.6534 35.8756 42.0895 35.5463 42.4119C35.2171 42.7343 34.7717 42.9172 34.3061 42.9211C33.8405 42.9251 33.3919 42.7498 33.057 42.4331L32.0578 41.4547C31.9749 41.3739 31.8695 41.3188 31.7547 41.2966C31.6399 41.2744 31.521 41.286 31.413 41.3299C31.3049 41.3738 31.2126 41.4481 31.1476 41.5433C31.0827 41.6386 31.048 41.7505 31.0479 41.8651V44.6611C31.048 44.8894 31.0021 45.1155 30.9128 45.3265C30.8236 45.5375 30.6928 45.7292 30.5279 45.8907C30.363 46.0522 30.1672 46.1803 29.9518 46.2677C29.7363 46.3551 29.5054 46.4001 29.2721 46.4001C29.0389 46.4001 28.808 46.3551 28.5925 46.2677C28.377 46.1803 28.1813 46.0522 28.0164 45.8907C27.8515 45.7292 27.7207 45.5375 27.6314 45.3265C27.5422 45.1155 27.4963 44.8894 27.4963 44.6611V41.901C27.4965 41.7862 27.4619 41.674 27.3969 41.5785C27.3319 41.483 27.2394 41.4085 27.1311 41.3646C27.0228 41.3206 26.9036 41.3091 26.7886 41.3316C26.6737 41.354 26.5681 41.4094 26.4853 41.4907L25.5228 42.4331C25.359 42.5992 25.1631 42.7316 24.9464 42.8228C24.7298 42.9139 24.4967 42.9618 24.2609 42.9639C24.0251 42.9659 23.7913 42.9219 23.5731 42.8344C23.3548 42.747 23.1566 42.6179 22.9898 42.4546C22.8231 42.2914 22.6912 42.0972 22.6019 41.8836C22.5127 41.6699 22.4677 41.4409 22.4698 41.21C22.4718 40.9792 22.5208 40.751 22.6139 40.5389C22.7069 40.3267 22.8422 40.1348 23.0118 39.9745L27.1495 35.9231C27.3715 35.7057 27.4963 35.411 27.4963 35.1035L27.4951 31.8926C27.4951 31.5852 27.3704 31.2903 27.1484 31.0729C26.9264 30.8555 26.6253 30.7334 26.3113 30.7334L23.0592 30.7311C22.9035 30.731 22.7494 30.7609 22.6056 30.8192C22.4617 30.8775 22.3311 30.9629 22.221 31.0707V31.0696Z" fill="white"/>
</svg>
