<svg width="58" height="58" viewBox="0 0 58 58" fill="none" xmlns="http://www.w3.org/2000/svg">
<circle cx="29" cy="29" r="29" fill="#5BC4DF"/>
<path d="M15.7379 21.9168L20.6004 28.9157L17.9478 28.9153L17.9496 29.096C18.0471 35.052 22.9571 39.8508 29 39.8508C32.0658 39.8508 34.8408 38.6156 36.8427 36.6204L39.9797 39.7024C37.1766 42.4957 33.2925 44.225 29 44.225C20.455 44.225 13.5276 37.3709 13.5276 28.9157H10.875L15.7379 21.9168ZM29.0131 13.775C37.5015 13.775 44.3931 20.5381 44.4846 28.9153H47.125L42.2621 35.9142L37.3996 28.9153H40.0635V28.9041C39.9661 22.948 35.056 18.1492 29.0131 18.1492C27.5549 18.1473 26.1108 18.4319 24.7645 18.9865C23.4182 19.541 22.1966 20.3545 21.1705 21.3797L18.0335 18.2981C20.8365 15.5048 24.7207 13.775 29.0131 13.775Z" fill="white"/>
</svg>
