<svg width="58" height="58" viewBox="0 0 58 58" fill="none" xmlns="http://www.w3.org/2000/svg">
<circle cx="29" cy="29" r="29" fill="#497EB8"/>
<path d="M29 13.8623C34.5727 13.8623 39.0918 15.3677 39.0918 17.2262C39.0918 19.0848 34.5727 20.5902 29 20.5902C23.4273 20.5902 18.9082 19.0848 18.9082 17.2262C18.9082 15.3677 23.4273 13.8623 29 13.8623ZM29 15.5443C26.5295 15.5443 24.2387 15.8672 22.6139 16.4088C22.2143 16.5434 21.8934 16.6746 21.6451 16.7906L21.3222 16.9554L21.0981 17.09L20.9689 17.1825C20.9407 17.2061 20.9266 17.2212 20.9266 17.2262C20.9266 17.2313 20.9407 17.2464 20.9669 17.27L21.0981 17.3642L21.3201 17.497L21.6431 17.6619C21.8934 17.7796 22.2143 17.9108 22.6119 18.0437C24.2407 18.5853 26.5315 18.9082 29 18.9082C31.4685 18.9082 33.7613 18.5853 35.3861 18.0437C35.7857 17.9091 36.1066 17.7779 36.3549 17.6619L36.6778 17.497L36.9019 17.3625L37.0311 17.27L37.0734 17.2262L37.0331 17.1825L36.9019 17.0883L36.6799 16.9554L36.3569 16.7906C36.0444 16.6457 35.7208 16.5181 35.3881 16.4088C33.7593 15.8672 31.4685 15.5443 29 15.5443ZM29 37.4098C34.5727 37.4098 39.0918 38.9152 39.0918 40.7738C39.0918 42.6323 34.5727 44.1377 29 44.1377C23.4273 44.1377 18.9082 42.6323 18.9082 40.7738C18.9082 38.9152 23.4273 37.4098 29 37.4098ZM29 39.0918C26.5295 39.0918 24.2387 39.4147 22.6139 39.9563C22.2143 40.0909 21.8934 40.2221 21.6451 40.3381L21.3222 40.503L21.0981 40.6375L20.9689 40.73C20.9407 40.7536 20.9266 40.7687 20.9266 40.7738C20.9266 40.7788 20.9407 40.7939 20.9669 40.8175L21.0981 40.9117L21.3201 41.0446L21.6431 41.2094C21.8934 41.3271 22.2143 41.4583 22.6119 41.5912C24.2387 42.1328 26.5295 42.4557 29 42.4557C31.4705 42.4557 33.7613 42.1328 35.3861 41.5912C35.7857 41.4566 36.1066 41.3254 36.3549 41.2094L36.6778 41.0446L36.9019 40.91L37.0311 40.8175L37.0734 40.7738L37.0331 40.73L36.9019 40.6358L36.6799 40.503L36.3569 40.3381C36.0444 40.1932 35.7208 40.0657 35.3881 39.9563C33.7593 39.4147 31.4685 39.0918 29 39.0918Z" fill="white"/>
<path d="M18.9082 16.7458V40.5337H20.9266V16.7458H18.9082ZM37.0734 16.7458V40.5337H39.0918V16.7458H37.0734Z" fill="white"/>
</svg>
