<svg width="58" height="58" viewBox="0 0 58 58" fill="none" xmlns="http://www.w3.org/2000/svg">
<circle cx="29" cy="29" r="29" fill="#497EB8"/>
<path d="M44.6015 43.1586L39.238 37.796C41.6131 35.0791 42.9198 31.5917 42.9149 27.9831C42.9149 19.7356 36.2293 13.05 27.9819 13.05C19.7344 13.05 13.0488 19.7356 13.0488 27.9831C13.0488 36.2305 19.7344 42.9161 27.9819 42.9161C31.756 42.9161 35.2028 41.5162 37.831 39.2083L43.1945 44.5683C43.3815 44.7548 43.6349 44.8595 43.899 44.8593C44.1631 44.859 44.4163 44.7539 44.6029 44.5669C44.7895 44.38 44.8941 44.1266 44.8939 43.8625C44.8936 43.5984 44.7885 43.3452 44.6015 43.1586ZM27.9819 40.925C26.2333 40.925 24.5377 40.5826 22.9449 39.9074C21.4067 39.2567 20.009 38.3143 18.8291 37.1323C17.6248 35.9327 16.67 34.5065 16.0196 32.9361C15.3693 31.3657 15.0363 29.682 15.0399 27.9822C15.0399 26.2345 15.3824 24.5399 16.0576 22.947C16.7081 21.4085 17.6505 20.0105 18.8327 18.8303C20.0112 17.647 21.4088 16.7044 22.9475 16.0552C24.5404 15.38 26.2368 15.0376 27.9845 15.0376C29.7331 15.0376 31.4286 15.38 33.0215 16.0552C34.5597 16.7059 35.9574 17.6483 37.1372 18.8303C38.3419 20.0301 39.2968 21.4567 39.9467 23.0277C40.5966 24.5987 40.9287 26.2829 40.9238 27.9831C40.9238 29.7317 40.5814 31.4272 39.9062 33.02C39.2555 34.5583 38.3131 35.9559 37.1311 37.1358C35.9525 38.3191 34.5549 39.2617 33.0162 39.9109C31.4233 40.5839 29.7111 40.9288 27.9819 40.925Z" fill="white"/>
<path d="M34.422 20.8285C34.0407 20.8286 33.6664 20.9303 33.3374 21.123C33.0085 21.3157 32.7368 21.5925 32.5503 21.925C32.3637 22.2575 32.2691 22.6337 32.2761 23.0149C32.2831 23.396 32.3915 23.7685 32.5902 24.0939L30.254 27.9858C30.2133 27.9831 30.169 27.9831 30.1292 27.9831C29.9053 27.9831 29.6903 28.0176 29.4885 28.0796L27.8859 26.4779C27.9928 26.1352 28.0121 25.7712 27.942 25.4192C27.8719 25.0672 27.7146 24.7384 27.4846 24.4629C27.2546 24.1873 26.9592 23.9738 26.6254 23.8419C26.2915 23.7101 25.93 23.664 25.5738 23.7079C25.2175 23.7518 24.878 23.8844 24.5862 24.0934C24.2945 24.3024 24.0598 24.5813 23.9036 24.9045C23.7474 25.2276 23.6747 25.5848 23.6923 25.9433C23.7098 26.3018 23.8169 26.6502 24.0038 26.9566L21.6676 30.8485C21.6269 30.8449 21.5827 30.8449 21.5428 30.8449C21.0679 30.845 20.6065 31.0026 20.2307 31.293C19.8549 31.5833 19.586 31.9901 19.4661 32.4496C19.3461 32.9092 19.382 33.3955 19.5679 33.8324C19.7539 34.2694 20.0795 34.6324 20.4938 34.8646C20.9081 35.0967 21.3877 35.185 21.8575 35.1155C22.3273 35.046 22.7607 34.8227 23.0901 34.4805C23.4194 34.1383 23.626 33.6966 23.6775 33.2245C23.729 32.7524 23.6224 32.2766 23.3746 31.8714L25.7108 27.9769C25.7515 27.9804 25.7949 27.9804 25.8356 27.9804C26.0595 27.9804 26.2745 27.9451 26.4763 27.8831L28.0789 29.4857C27.972 29.8283 27.9527 30.1923 28.0228 30.5443C28.0929 30.8963 28.2502 31.2252 28.4802 31.5007C28.7102 31.7762 29.0056 31.9897 29.3394 32.1216C29.6733 32.2535 30.0348 32.2996 30.391 32.2557C30.7473 32.2117 31.0868 32.0792 31.3786 31.8701C31.6703 31.6611 31.905 31.3823 32.0612 31.0591C32.2174 30.7359 32.2901 30.3788 32.2725 30.0203C32.255 29.6618 32.1479 29.3134 31.961 29.007L34.2972 25.1151C34.5891 25.1319 34.8813 25.089 35.156 24.9889C35.4307 24.8889 35.6821 24.7337 35.8947 24.533C36.1073 24.3324 36.2767 24.0904 36.3924 23.8219C36.5082 23.5534 36.5679 23.2642 36.5679 22.9718C36.5679 22.6901 36.5124 22.4111 36.4045 22.1509C36.2966 21.8906 36.1386 21.6541 35.9393 21.455C35.74 21.2559 35.5034 21.098 35.243 20.9903C34.9827 20.8827 34.7037 20.8274 34.422 20.8276V20.8285ZM21.5428 33.1466C21.5224 33.1468 21.5021 33.143 21.4832 33.1353C21.4642 33.1276 21.447 33.1163 21.4325 33.1018C21.418 33.0874 21.4065 33.0703 21.3987 33.0514C21.3909 33.0325 21.387 33.0122 21.3871 32.9918C21.3871 32.905 21.4552 32.836 21.5428 32.836C21.6296 32.836 21.6977 32.905 21.6977 32.9918C21.6979 33.0122 21.6941 33.0325 21.6864 33.0514C21.6787 33.0704 21.6673 33.0876 21.6529 33.1021C21.6385 33.1166 21.6213 33.1281 21.6024 33.1359C21.5835 33.1437 21.5633 33.1476 21.5428 33.1475V33.1466ZM25.8356 25.992C25.8151 25.9923 25.7947 25.9884 25.7757 25.9807C25.7567 25.9729 25.7394 25.9615 25.7249 25.9469C25.7104 25.9324 25.699 25.9152 25.6912 25.8962C25.6835 25.8772 25.6796 25.8568 25.6798 25.8363C25.6798 25.7496 25.7489 25.6805 25.8356 25.6805C25.9232 25.6805 25.9913 25.7496 25.9913 25.8363C25.9916 25.8568 25.9877 25.8772 25.98 25.8962C25.9722 25.9152 25.9608 25.9324 25.9462 25.9469C25.9317 25.9615 25.9145 25.9729 25.8955 25.9807C25.8765 25.9884 25.8561 25.9923 25.8356 25.992ZM30.1292 30.2857C30.1087 30.2859 30.0883 30.282 30.0693 30.2743C30.0503 30.2666 30.0331 30.2551 30.0186 30.2406C30.0041 30.2261 29.9926 30.2088 29.9848 30.1898C29.9771 30.1708 29.9732 30.1504 29.9735 30.1299C29.9735 30.0423 30.0416 29.9742 30.1292 29.9742C30.2159 29.9742 30.285 30.0423 30.285 30.1299C30.2852 30.1504 30.2813 30.1708 30.2736 30.1898C30.2658 30.2088 30.2544 30.2261 30.2399 30.2406C30.2254 30.2551 30.2081 30.2666 30.1891 30.2743C30.1701 30.282 30.1497 30.2859 30.1292 30.2857ZM34.422 23.1302C34.4015 23.1303 34.3813 23.1264 34.3624 23.1186C34.3435 23.1108 34.3263 23.0993 34.3119 23.0848C34.2975 23.0703 34.2861 23.0531 34.2784 23.0341C34.2707 23.0152 34.2669 22.9949 34.2671 22.9745C34.2671 22.8868 34.3352 22.8187 34.422 22.8187C34.5096 22.8187 34.5777 22.8868 34.5777 22.9745C34.578 22.995 34.5741 23.0153 34.5663 23.0343C34.5586 23.0533 34.5471 23.0706 34.5326 23.0851C34.5181 23.0996 34.5009 23.1111 34.4818 23.1188C34.4628 23.1266 34.4425 23.1304 34.422 23.1302Z" fill="white"/>
</svg>
