<svg width="58" height="58" viewBox="0 0 58 58" fill="none" xmlns="http://www.w3.org/2000/svg">
<circle cx="29" cy="29" r="29" fill="#E9C187"/>
<path d="M18.6802 32.3532C20.1732 32.3532 21.6051 32.9404 22.6608 33.9856C23.7165 35.0308 24.3096 36.4484 24.3096 37.9266C24.3096 39.4048 23.7165 40.8224 22.6608 41.8676C21.6051 42.9128 20.1732 43.5 18.6802 43.5C17.1872 43.5 15.7553 42.9128 14.6996 41.8676C13.6439 40.8224 13.0508 39.4048 13.0508 37.9266C13.0508 36.4484 13.6439 35.0308 14.6996 33.9856C15.7553 32.9404 17.1872 32.3532 18.6802 32.3532ZM39.3214 32.3532C40.8144 32.3532 42.2462 32.9404 43.302 33.9856C44.3577 35.0308 44.9508 36.4484 44.9508 37.9266C44.9508 39.4048 44.3577 40.8224 43.302 41.8676C42.2462 42.9128 40.8144 43.5 39.3214 43.5C37.8284 43.5 36.3965 42.9128 35.3408 41.8676C34.2851 40.8224 33.692 39.4048 33.692 37.9266C33.692 36.4484 34.2851 35.0308 35.3408 33.9856C36.3965 32.9404 37.8284 32.3532 39.3214 32.3532ZM26.0547 39.3162C27.0051 39.6273 27.9998 39.7854 29.0008 39.7844C30.0017 39.7854 30.9963 39.6276 31.9468 39.3172C32.1232 40.2394 32.4753 41.1199 32.9845 41.9116L32.856 41.9553C31.6447 42.3547 30.3481 42.5711 29.0008 42.5711C27.6056 42.5711 26.2649 42.3389 25.0161 41.9116C25.5257 41.1197 25.8782 40.2388 26.0547 39.3162ZM18.6802 35.1399C18.3106 35.1399 17.9445 35.2119 17.6031 35.352C17.2616 35.492 16.9513 35.6973 16.6899 35.9561C16.4285 36.2149 16.2212 36.5221 16.0797 36.8602C15.9383 37.1983 15.8655 37.5606 15.8655 37.9266C15.8655 38.2925 15.9383 38.6549 16.0797 38.993C16.2212 39.3311 16.4285 39.6383 16.6899 39.8971C16.9513 40.1559 17.2616 40.3611 17.6031 40.5012C17.9445 40.6412 18.3106 40.7133 18.6802 40.7133C19.4267 40.7133 20.1426 40.4197 20.6705 39.8971C21.1983 39.3745 21.4949 38.6657 21.4949 37.9266C21.4949 37.1875 21.1983 36.4787 20.6705 35.9561C20.1426 35.4335 19.4267 35.1399 18.6802 35.1399ZM39.3214 35.1399C38.9517 35.1399 38.5857 35.2119 38.2442 35.352C37.9027 35.492 37.5924 35.6973 37.3311 35.9561C37.0697 36.2149 36.8624 36.5221 36.7209 36.8602C36.5795 37.1983 36.5067 37.5606 36.5067 37.9266C36.5067 38.2925 36.5795 38.6549 36.7209 38.993C36.8624 39.3311 37.0697 39.6383 37.3311 39.8971C37.5924 40.1559 37.9027 40.3611 38.2442 40.5012C38.5857 40.6412 38.9517 40.7133 39.3214 40.7133C40.0679 40.7133 40.7838 40.4197 41.3117 39.8971C41.8395 39.3745 42.1361 38.6657 42.1361 37.9266C42.1361 37.1875 41.8395 36.4787 41.3117 35.9561C40.7838 35.4335 40.0679 35.1399 39.3214 35.1399ZM21.6506 20.857C21.8495 21.8141 22.2386 22.7226 22.7953 23.5295L22.6302 23.6753C21.6791 24.5441 20.9204 25.5988 20.402 26.7727C19.8836 27.9466 19.6168 29.2142 19.6184 30.4953L19.6203 30.5529C18.6792 30.4369 17.7244 30.4968 16.8056 30.7294C16.7667 28.8218 17.1856 26.9323 18.0279 25.2162C18.8702 23.5001 20.1118 22.0064 21.6506 20.8579V20.857ZM36.3519 20.8589C37.8586 21.9835 39.0807 23.4394 39.9217 25.1118C40.7627 26.7842 41.1996 28.6272 41.1978 30.4953L41.195 30.7285C40.2773 30.4951 39.3232 30.4355 38.3831 30.5529V30.4953C38.3847 29.1773 38.1021 27.874 37.5545 26.6726C37.0068 25.4713 36.2066 24.3994 35.2072 23.5285C35.7633 22.7224 36.1524 21.815 36.3519 20.8589ZM29.0008 13.775C30.4938 13.775 31.9257 14.3622 32.9814 15.4074C34.0371 16.4527 34.6302 17.8703 34.6302 19.3485C34.6302 20.8266 34.0371 22.2443 32.9814 23.2895C31.9257 24.3347 30.4938 24.9219 29.0008 24.9219C27.5078 24.9219 26.0759 24.3347 25.0202 23.2895C23.9645 22.2443 23.3714 20.8266 23.3714 19.3485C23.3714 17.8703 23.9645 16.4527 25.0202 15.4074C26.0759 14.3622 27.5078 13.775 29.0008 13.775ZM29.0008 16.5617C28.2543 16.5617 27.5383 16.8553 27.0105 17.378C26.4826 17.9006 26.1861 18.6094 26.1861 19.3485C26.1861 20.0875 26.4826 20.7964 27.0105 21.319C27.5383 21.8416 28.2543 22.1352 29.0008 22.1352C29.7473 22.1352 30.4632 21.8416 30.9911 21.319C31.5189 20.7964 31.8155 20.0875 31.8155 19.3485C31.8155 18.6094 31.5189 17.9006 30.9911 17.378C30.4632 16.8553 29.7473 16.5617 29.0008 16.5617Z" fill="white"/>
</svg>
